<?xml version="1.0" encoding="utf-8" ?>
<svg baseProfile="full" height="540" version="1.1" width="960" xmlns="http://www.w3.org/2000/svg" xmlns:ev="http://www.w3.org/2001/xml-events" xmlns:xlink="http://www.w3.org/1999/xlink"><defs /><path d="M 439 238 L 440 237 L 441 236" fill="none" stroke="black" stroke-width="4" /><path d="M 601 228 L 602 227 L 603 226" fill="none" stroke="black" stroke-width="4" /><path d="M 500 202 L 501 201 L 502 200" fill="none" stroke="black" stroke-width="4" /><path d="M 467 114 L 468 113 L 469 112" fill="none" stroke="black" stroke-width="4" /><path d="M 510 102 L 511 101 L 512 100" fill="none" stroke="black" stroke-width="4" /><path d="M 389 141 L 390 140 L 391 139" fill="none" stroke="black" stroke-width="4" /><path d="M 526 264 L 527 263 L 528 262" fill="none" stroke="black" stroke-width="4" /><path d="M 572 164 L 573 163 L 574 162" fill="none" stroke="black" stroke-width="4" /><path d="M 500 225 L 501 224 L 502 223" fill="none" stroke="black" stroke-width="4" /><path d="M 592 285 L 593 284 L 594 283" fill="none" stroke="black" stroke-width="4" /><path d="M 588 232 L 589 231 L 590 230" fill="none" stroke="black" stroke-width="4" /><path d="M 554 179 L 555 178 L 556 177" fill="none" stroke="black" stroke-width="4" /><path d="M 454 92 L 455 91 L 456 90" fill="none" stroke="black" stroke-width="4" /><path d="M 584 208 L 585 207 L 586 206" fill="none" stroke="black" stroke-width="4" /><path d="M 565 132 L 566 131 L 567 130" fill="none" stroke="black" stroke-width="4" /><path d="M 427 181 L 428 180 L 429 179" fill="none" stroke="black" stroke-width="4" /><path d="M 487 105 L 488 104 L 489 103" fill="none" stroke="black" stroke-width="4" /><path d="M 478 225 L 479 224 L 480 223" fill="none" stroke="black" stroke-width="4" /><path d="M 558 184 L 559 183 L 560 182" fill="none" stroke="black" stroke-width="4" /><path d="M 585 183 L 586 182 L 587 181" fill="none" stroke="black" stroke-width="4" /><path d="M 551 213 L 552 212 L 553 211" fill="none" stroke="black" stroke-width="4" /><path d="M 591 183 L 592 182 L 593 181" fill="none" stroke="black" stroke-width="4" /><path d="M 515 192 L 516 191 L 517 190" fill="none" stroke="black" stroke-width="4" /><path d="M 571 147 L 572 146 L 573 145" fill="none" stroke="black" stroke-width="4" /><path d="M 490 265 L 491 264 L 492 263" fill="none" stroke="black" stroke-width="4" /><path d="M 552 209 L 553 208 L 554 207" fill="none" stroke="black" stroke-width="4" /><path d="M 495 91 L 496 90 L 497 89" fill="none" stroke="black" stroke-width="4" /><path d="M 582 141 L 583 140 L 584 139" fill="none" stroke="black" stroke-width="4" /><path d="M 615 209 L 616 208 L 617 207" fill="none" stroke="black" stroke-width="4" /><path d="M 568 134 L 569 133 L 570 132" fill="none" stroke="black" stroke-width="4" /><path d="M 549 205 L 550 204 L 551 203" fill="none" stroke="black" stroke-width="4" /><path d="M 554 124 L 555 123 L 556 122" fill="none" stroke="black" stroke-width="4" /><path d="M 553 167 L 554 166 L 555 165" fill="none" stroke="black" stroke-width="4" /><path d="M 556 268 L 557 267 L 558 266" fill="none" stroke="black" stroke-width="4" /><path d="M 467 198 L 468 197 L 469 196" fill="none" stroke="black" stroke-width="4" /><path d="M 537 112 L 538 111 L 539 110" fill="none" stroke="black" stroke-width="4" /><path d="M 418 120 L 419 119 L 420 118" fill="none" stroke="black" stroke-width="4" /><path d="M 463 175 L 464 174 L 465 173" fill="none" stroke="black" stroke-width="4" /><path d="M 453 238 L 454 237 L 455 236" fill="none" stroke="black" stroke-width="4" /><path d="M 434 156 L 435 155 L 436 154" fill="none" stroke="black" stroke-width="4" /><path d="M 437 197 L 438 196 L 439 195" fill="none" stroke="black" stroke-width="4" /><path d="M 464 214 L 465 213 L 466 212" fill="none" stroke="black" stroke-width="4" /><path d="M 538 256 L 539 255 L 540 254" fill="none" stroke="black" stroke-width="4" /><path d="M 446 250 L 447 249 L 448 248" fill="none" stroke="black" stroke-width="4" /><path d="M 403 156 L 404 155 L 405 154" fill="none" stroke="black" stroke-width="4" /><path d="M 412 209 L 413 208 L 414 207" fill="none" stroke="black" stroke-width="4" /><path d="M 443 93 L 444 92 L 445 91" fill="none" stroke="black" stroke-width="4" /><path d="M 470 212 L 471 211 L 472 210" fill="none" stroke="black" stroke-width="4" /><path d="M 586 151 L 587 150 L 588 149" fill="none" stroke="black" stroke-width="4" /><path d="M 501 274 L 502 273 L 503 272" fill="none" stroke="black" stroke-width="4" /><path d="M 552 158 L 553 157 L 554 156" fill="none" stroke="black" stroke-width="4" /><path d="M 455 243 L 456 242 L 457 241" fill="none" stroke="black" stroke-width="4" /><path d="M 510 225 L 511 224 L 512 223" fill="none" stroke="black" stroke-width="4" /><path d="M 449 192 L 450 191 L 451 190" fill="none" stroke="black" stroke-width="4" /><path d="M 507 213 L 508 212 L 509 211" fill="none" stroke="black" stroke-width="4" /><path d="M 592 268 L 593 267 L 594 266" fill="none" stroke="black" stroke-width="4" /><path d="M 619 220 L 620 219 L 621 218" fill="none" stroke="black" stroke-width="4" /><path d="M 578 250 L 579 249 L 580 248" fill="none" stroke="black" stroke-width="4" /><path d="M 591 226 L 592 225 L 593 224" fill="none" stroke="black" stroke-width="4" /><path d="M 511 235 L 512 234 L 513 233" fill="none" stroke="black" stroke-width="4" /><path d="M 564 193 L 565 192 L 566 191" fill="none" stroke="black" stroke-width="4" /><path d="M 407 116 L 408 115 L 409 114" fill="none" stroke="black" stroke-width="4" /><path d="M 558 230 L 559 229 L 560 228" fill="none" stroke="black" stroke-width="4" /><path d="M 458 150 L 459 149 L 460 148" fill="none" stroke="black" stroke-width="4" /><path d="M 565 303 L 566 302 L 567 301" fill="none" stroke="black" stroke-width="4" /><path d="M 585 228 L 586 227 L 587 226" fill="none" stroke="black" stroke-width="4" /><path d="M 426 97 L 427 96 L 428 95" fill="none" stroke="black" stroke-width="4" /><path d="M 505 152 L 506 151 L 507 150" fill="none" stroke="black" stroke-width="4" /><path d="M 491 147 L 492 146 L 493 145" fill="none" stroke="black" stroke-width="4" /><path d="M 504 171 L 505 170 L 506 169" fill="none" stroke="black" stroke-width="4" /><path d="M 405 183 L 406 182 L 407 181" fill="none" stroke="black" stroke-width="4" /><path d="M 571 228 L 572 227 L 573 226" fill="none" stroke="black" stroke-width="4" /><path d="M 588 221 L 589 220 L 590 219" fill="none" stroke="black" stroke-width="4" /><path d="M 552 257 L 553 256 L 554 255" fill="none" stroke="black" stroke-width="4" /><path d="M 420 108 L 421 107 L 422 106" fill="none" stroke="black" stroke-width="4" /><path d="M 448 222 L 449 221 L 450 220" fill="none" stroke="black" stroke-width="4" /><path d="M 582 241 L 583 240 L 584 239" fill="none" stroke="black" stroke-width="4" /><path d="M 467 132 L 468 131 L 469 130" fill="none" stroke="black" stroke-width="4" /><path d="M 549 165 L 550 164 L 551 163" fill="none" stroke="black" stroke-width="4" /><path d="M 527 146 L 528 145 L 529 144" fill="none" stroke="black" stroke-width="4" /><path d="M 538 208 L 539 207 L 540 206" fill="none" stroke="black" stroke-width="4" /><path d="M 588 265 L 589 264 L 590 263" fill="none" stroke="black" stroke-width="4" /><path d="M 536 128 L 537 127 L 538 126" fill="none" stroke="black" stroke-width="4" /><path d="M 560 272 L 561 271 L 562 270" fill="none" stroke="black" stroke-width="4" /><path d="M 516 115 L 517 114 L 518 113" fill="none" stroke="black" stroke-width="4" /><path d="M 465 147 L 466 146 L 467 145" fill="none" stroke="black" stroke-width="4" /><path d="M 461 245 L 462 244 L 463 243" fill="none" stroke="black" stroke-width="4" /><path d="M 480 188 L 481 187 L 482 186" fill="none" stroke="black" stroke-width="4" /><path d="M 410 167 L 411 166 L 412 165" fill="none" stroke="black" stroke-width="4" /><path d="M 482 196 L 483 195 L 484 194" fill="none" stroke="black" stroke-width="4" /><path d="M 539 191 L 540 190 L 541 189" fill="none" stroke="black" stroke-width="4" /><path d="M 563 247 L 564 246 L 565 245" fill="none" stroke="black" stroke-width="4" /><path d="M 525 186 L 526 185 L 527 184" fill="none" stroke="black" stroke-width="4" /><path d="M 485 263 L 486 262 L 487 261" fill="none" stroke="black" stroke-width="4" /><path d="M 505 251 L 506 250 L 507 249" fill="none" stroke="black" stroke-width="4" /><path d="M 504 100 L 505 99 L 506 98" fill="none" stroke="black" stroke-width="4" /><path d="M 430 149 L 431 148 L 432 147" fill="none" stroke="black" stroke-width="4" /><path d="M 531 221 L 532 220 L 533 219" fill="none" stroke="black" stroke-width="4" /><path d="M 548 198 L 549 197 L 550 196" fill="none" stroke="black" stroke-width="4" /><path d="M 560 193 L 561 192 L 562 191" fill="none" stroke="black" stroke-width="4" /><path d="M 565 205 L 566 204 L 567 203" fill="none" stroke="black" stroke-width="4" /><path d="M 613 279 L 614 278 L 615 277" fill="none" stroke="black" stroke-width="4" /><path d="M 580 280 L 581 279 L 582 278" fill="none" stroke="black" stroke-width="4" /><path d="M 520 210 L 521 209 L 522 208" fill="none" stroke="black" stroke-width="4" /><path d="M 575 271 L 576 270 L 577 269" fill="none" stroke="black" stroke-width="4" /><path d="M 514 209 L 515 208 L 516 207" fill="none" stroke="black" stroke-width="4" /><path d="M 415 219 L 416 218 L 417 217" fill="none" stroke="black" stroke-width="4" /><path d="M 397 126 L 398 125 L 399 124" fill="none" stroke="black" stroke-width="4" /><path d="M 604 173 L 605 172 L 606 171" fill="none" stroke="black" stroke-width="4" /><path d="M 454 193 L 455 192 L 456 191" fill="none" stroke="black" stroke-width="4" /><path d="M 428 227 L 429 226 L 430 225" fill="none" stroke="black" stroke-width="4" /><path d="M 472 109 L 473 108 L 474 107" fill="none" stroke="black" stroke-width="4" /><path d="M 564 289 L 565 288 L 566 287" fill="none" stroke="black" stroke-width="4" /><path d="M 480 149 L 481 148 L 482 147" fill="none" stroke="black" stroke-width="4" /><path d="M 576 129 L 577 128 L 578 127" fill="none" stroke="black" stroke-width="4" /><path d="M 407 137 L 408 136 L 409 135" fill="none" stroke="black" stroke-width="4" /><path d="M 468 228 L 469 227 L 470 226" fill="none" stroke="black" stroke-width="4" /><path d="M 435 129 L 436 128 L 437 127" fill="none" stroke="black" stroke-width="4" /><path d="M 509 272 L 510 271 L 511 270" fill="none" stroke="black" stroke-width="4" /><path d="M 430 120 L 431 119 L 432 118" fill="none" stroke="black" stroke-width="4" /><path d="M 389 161 L 390 160 L 391 159" fill="none" stroke="black" stroke-width="4" /><path d="M 426 216 L 427 215 L 428 214" fill="none" stroke="black" stroke-width="4" /><path d="M 610 178 L 611 177 L 612 176" fill="none" stroke="black" stroke-width="4" /><path d="M 486 224 L 487 223 L 488 222" fill="none" stroke="black" stroke-width="4" /><path d="M 541 119 L 542 118 L 543 117" fill="none" stroke="black" stroke-width="4" /><path d="M 439 110 L 440 109 L 441 108" fill="none" stroke="black" stroke-width="4" /><path d="M 497 157 L 498 156 L 499 155" fill="none" stroke="black" stroke-width="4" /><path d="M 588 239 L 589 238 L 590 237" fill="none" stroke="black" stroke-width="4" /><path d="M 624 245 L 625 244 L 626 243" fill="none" stroke="black" stroke-width="4" /><path d="M 578 211 L 579 210 L 580 209" fill="none" stroke="black" stroke-width="4" /><path d="M 518 145 L 519 144 L 520 143" fill="none" stroke="black" stroke-width="4" /><path d="M 577 231 L 578 230 L 579 229" fill="none" stroke="black" stroke-width="4" /><path d="M 478 174 L 479 173 L 480 172" fill="none" stroke="black" stroke-width="4" /><path d="M 491 273 L 492 272 L 493 271" fill="none" stroke="black" stroke-width="4" /><path d="M 498 216 L 499 215 L 500 214" fill="none" stroke="black" stroke-width="4" /><path d="M 442 180 L 443 179 L 444 178" fill="none" stroke="black" stroke-width="4" /><path d="M 558 148 L 559 147 L 560 146" fill="none" stroke="black" stroke-width="4" /><path d="M 587 142 L 588 141 L 589 140" fill="none" stroke="black" stroke-width="4" /><path d="M 497 183 L 498 182 L 499 181" fill="none" stroke="black" stroke-width="4" /><path d="M 497 164 L 498 163 L 499 162" fill="none" stroke="black" stroke-width="4" /><path d="M 467 119 L 468 118 L 469 117" fill="none" stroke="black" stroke-width="4" /><path d="M 591 274 L 592 273 L 593 272" fill="none" stroke="black" stroke-width="4" /><path d="M 468 248 L 469 247 L 470 246" fill="none" stroke="black" stroke-width="4" /><path d="M 519 129 L 520 128 L 521 127" fill="none" stroke="black" stroke-width="4" /><path d="M 454 175 L 455 174 L 456 173" fill="none" stroke="black" stroke-width="4" /><path d="M 461 125 L 462 124 L 463 123" fill="none" stroke="black" stroke-width="4" /><path d="M 489 193 L 490 192 L 491 191" fill="none" stroke="black" stroke-width="4" /><path d="M 499 248 L 500 247 L 501 246" fill="none" stroke="black" stroke-width="4" /><path d="M 557 133 L 558 132 L 559 131" fill="none" stroke="black" stroke-width="4" /><path d="M 412 124 L 413 123 L 414 122" fill="none" stroke="black" stroke-width="4" /><path d="M 480 137 L 481 136 L 482 135" fill="none" stroke="black" stroke-width="4" /><path d="M 523 233 L 524 232 L 525 231" fill="none" stroke="black" stroke-width="4" /><path d="M 524 106 L 525 105 L 526 104" fill="none" stroke="black" stroke-width="4" /><path d="M 469 88 L 470 87 L 471 86" fill="none" stroke="black" stroke-width="4" /><path d="M 533 275 L 534 274 L 535 273" fill="none" stroke="black" stroke-width="4" /><path d="M 548 171 L 549 170 L 550 169" fill="none" stroke="black" stroke-width="4" /><path d="M 531 154 L 532 153 L 533 152" fill="none" stroke="black" stroke-width="4" /><path d="M 509 134 L 510 133 L 511 132" fill="none" stroke="black" stroke-width="4" /><path d="M 493 183 L 494 182 L 495 181" fill="none" stroke="black" stroke-width="4" /><path d="M 566 177 L 567 176 L 568 175" fill="none" stroke="black" stroke-width="4" /><path d="M 629 231 L 630 230 L 631 229" fill="none" stroke="black" stroke-width="4" /><path d="M 478 183 L 479 182 L 480 181" fill="none" stroke="black" stroke-width="4" /><path d="M 625 262 L 626 261 L 627 260" fill="none" stroke="black" stroke-width="4" /><path d="M 512 290 L 513 289 L 514 288" fill="none" stroke="black" stroke-width="4" /><path d="M 617 241 L 618 240 L 619 239" fill="none" stroke="black" stroke-width="4" /><path d="M 624 223 L 625 222 L 626 221" fill="none" stroke="black" stroke-width="4" /><path d="M 552 238 L 553 237 L 554 236" fill="none" stroke="black" stroke-width="4" /><path d="M 402 142 L 403 141 L 404 140" fill="none" stroke="black" stroke-width="4" /><path d="M 572 285 L 573 284 L 574 283" fill="none" stroke="black" stroke-width="4" /><path d="M 563 158 L 564 157 L 565 156" fill="none" stroke="black" stroke-width="4" /><path d="M 476 271 L 477 270 L 478 269" fill="none" stroke="black" stroke-width="4" /><path d="M 571 179 L 572 178 L 573 177" fill="none" stroke="black" stroke-width="4" /><path d="M 506 110 L 507 109 L 508 108" fill="none" stroke="black" stroke-width="4" /><path d="M 545 265 L 546 264 L 547 263" fill="none" stroke="black" stroke-width="4" /><path d="M 580 169 L 581 168 L 582 167" fill="none" stroke="black" stroke-width="4" /><path d="M 499 174 L 500 173 L 501 172" fill="none" stroke="black" stroke-width="4" /><path d="M 561 123 L 562 122 L 563 121" fill="none" stroke="black" stroke-width="4" /><path d="M 588 256 L 589 255 L 590 254" fill="none" stroke="black" stroke-width="4" /><path d="M 429 173 L 430 172 L 431 171" fill="none" stroke="black" stroke-width="4" /><path d="M 491 247 L 492 246 L 493 245" fill="none" stroke="black" stroke-width="4" /><path d="M 603 196 L 604 195 L 605 194" fill="none" stroke="black" stroke-width="4" /><path d="M 451 153 L 452 152 L 453 151" fill="none" stroke="black" stroke-width="4" /><path d="M 534 202 L 535 201 L 536 200" fill="none" stroke="black" stroke-width="4" /><path d="M 560 225 L 561 224 L 562 223" fill="none" stroke="black" stroke-width="4" /><path d="M 552 274 L 553 273 L 554 272" fill="none" stroke="black" stroke-width="4" /><path d="M 527 182 L 528 181 L 529 180" fill="none" stroke="black" stroke-width="4" /><path d="M 453 165 L 454 164 L 455 163" fill="none" stroke="black" stroke-width="4" /><path d="M 541 195 L 542 194 L 543 193" fill="none" stroke="black" stroke-width="4" /><path d="M 575 292 L 576 291 L 577 290" fill="none" stroke="black" stroke-width="4" /><path d="M 488 158 L 489 157 L 490 156" fill="none" stroke="black" stroke-width="4" /><path d="M 611 253 L 612 252 L 613 251" fill="none" stroke="black" stroke-width="4" /><path d="M 476 192 L 477 191 L 478 190" fill="none" stroke="black" stroke-width="4" /><path d="M 466 97 L 467 96 L 468 95" fill="none" stroke="black" stroke-width="4" /><path d="M 404 109 L 405 108 L 406 107" fill="none" stroke="black" stroke-width="4" /><path d="M 574 265 L 575 264 L 576 263" fill="none" stroke="black" stroke-width="4" /><path d="M 611 217 L 612 216 L 613 215" fill="none" stroke="black" stroke-width="4" /><path d="M 555 279 L 556 278 L 557 277" fill="none" stroke="black" stroke-width="4" /><path d="M 437 101 L 438 100 L 439 99" fill="none" stroke="black" stroke-width="4" /><path d="M 526 243 L 527 242 L 528 241" fill="none" stroke="black" stroke-width="4" /><path d="M 612 186 L 613 185 L 614 184" fill="none" stroke="black" stroke-width="4" /><path d="M 604 183 L 605 182 L 606 181" fill="none" stroke="black" stroke-width="4" /><path d="M 563 211 L 564 210 L 565 209" fill="none" stroke="black" stroke-width="4" /><path d="M 509 117 L 510 116 L 511 115" fill="none" stroke="black" stroke-width="4" /><path d="M 500 145 L 501 144 L 502 143" fill="none" stroke="black" stroke-width="4" /><path d="M 509 262 L 510 261 L 511 260" fill="none" stroke="black" stroke-width="4" /><path d="M 491 125 L 492 124 L 493 123" fill="none" stroke="black" stroke-width="4" /><path d="M 544 245 L 545 244 L 546 243" fill="none" stroke="black" stroke-width="4" /><path d="M 505 232 L 506 231 L 507 230" fill="none" stroke="black" stroke-width="4" /><path d="M 483 172 L 484 171 L 485 170" fill="none" stroke="black" stroke-width="4" /><path d="M 578 237 L 579 236 L 580 235" fill="none" stroke="black" stroke-width="4" /><path d="M 570 201 L 571 200 L 572 199" fill="none" stroke="black" stroke-width="4" /><path d="M 532 206 L 533 205 L 534 204" fill="none" stroke="black" stroke-width="4" /><path d="M 630 236 L 631 235 L 632 234" fill="none" stroke="black" stroke-width="4" /><path d="M 554 149 L 555 148 L 556 147" fill="none" stroke="black" stroke-width="4" /><path d="M 502 239 L 503 238 L 504 237" fill="none" stroke="black" stroke-width="4" /><path d="M 593 167 L 594 166 L 595 165" fill="none" stroke="black" stroke-width="4" /><path d="M 518 235 L 519 234 L 520 233" fill="none" stroke="black" stroke-width="4" /><path d="M 517 177 L 518 176 L 519 175" fill="none" stroke="black" stroke-width="4" /><path d="M 533 168 L 534 167 L 535 166" fill="none" stroke="black" stroke-width="4" /><path d="M 435 108 L 436 107 L 437 106" fill="none" stroke="black" stroke-width="4" /><path d="M 607 208 L 608 207 L 609 206" fill="none" stroke="black" stroke-width="4" /><path d="M 494 103 L 495 102 L 496 101" fill="none" stroke="black" stroke-width="4" /><path d="M 501 95 L 502 94 L 503 93" fill="none" stroke="black" stroke-width="4" /><path d="M 587 197 L 588 196 L 589 195" fill="none" stroke="black" stroke-width="4" /><path d="M 430 112 L 431 111 L 432 110" fill="none" stroke="black" stroke-width="4" /><path d="M 524 132 L 525 131 L 526 130" fill="none" stroke="black" stroke-width="4" /><path d="M 423 163 L 424 162 L 425 161" fill="none" stroke="black" stroke-width="4" /><path d="M 628 212 L 629 211 L 630 210" fill="none" stroke="black" stroke-width="4" /><path d="M 437 149 L 438 148 L 439 147" fill="none" stroke="black" stroke-width="4" /><path d="M 467 151 L 468 150 L 469 149" fill="none" stroke="black" stroke-width="4" /><path d="M 572 258 L 573 257 L 574 256" fill="none" stroke="black" stroke-width="4" /><path d="M 522 144 L 523 143 L 524 142" fill="none" stroke="black" stroke-width="4" /><path d="M 560 215 L 561 214 L 562 213" fill="none" stroke="black" stroke-width="4" /><path d="M 533 158 L 534 157 L 535 156" fill="none" stroke="black" stroke-width="4" /><path d="M 595 158 L 596 157 L 597 156" fill="none" stroke="black" stroke-width="4" /><path d="M 429 208 L 430 207 L 431 206" fill="none" stroke="black" stroke-width="4" /><path d="M 595 174 L 596 173 L 597 172" fill="none" stroke="black" stroke-width="4" /><path d="M 452 201 L 453 200 L 454 199" fill="none" stroke="black" stroke-width="4" /><path d="M 510 169 L 511 168 L 512 167" fill="none" stroke="black" stroke-width="4" /><path d="M 418 205 L 419 204 L 420 203" fill="none" stroke="black" stroke-width="4" /><path d="M 545 110 L 546 109 L 547 108" fill="none" stroke="black" stroke-width="4" /><path d="M 424 199 L 425 198 L 426 197" fill="none" stroke="black" stroke-width="4" /><path d="M 476 151 L 477 150 L 478 149" fill="none" stroke="black" stroke-width="4" /><path d="M 531 103 L 532 102 L 533 101" fill="none" stroke="black" stroke-width="4" /><path d="M 404 165 L 405 164 L 406 163" fill="none" stroke="black" stroke-width="4" /><path d="M 460 107 L 461 106 L 462 105" fill="none" stroke="black" stroke-width="4" /><path d="M 435 93 L 436 92 L 437 91" fill="none" stroke="black" stroke-width="4" /><path d="M 509 154 L 510 153 L 511 152" fill="none" stroke="black" stroke-width="4" /><path d="M 440 140 L 441 139 L 442 138" fill="none" stroke="black" stroke-width="4" /><path d="M 457 221 L 458 220 L 459 219" fill="none" stroke="black" stroke-width="4" /><path d="M 527 116 L 528 115 L 529 114" fill="none" stroke="black" stroke-width="4" /><path d="M 489 169 L 490 168 L 491 167" fill="none" stroke="black" stroke-width="4" /><path d="M 458 204 L 459 203 L 460 202" fill="none" stroke="black" stroke-width="4" /><path d="M 592 203 L 593 202 L 594 201" fill="none" stroke="black" stroke-width="4" /><path d="M 567 147 L 568 146 L 569 145" fill="none" stroke="black" stroke-width="4" /><path d="M 514 145 L 515 144 L 516 143" fill="none" stroke="black" stroke-width="4" /><path d="M 520 291 L 521 290 L 522 289" fill="none" stroke="black" stroke-width="4" /><path d="M 397 176 L 398 175 L 399 174" fill="none" stroke="black" stroke-width="4" /><path d="M 478 95 L 479 94 L 480 93" fill="none" stroke="black" stroke-width="4" /><path d="M 576 186 L 577 185 L 578 184" fill="none" stroke="black" stroke-width="4" /><path d="M 519 193 L 520 192 L 521 191" fill="none" stroke="black" stroke-width="4" /><path d="M 581 159 L 582 158 L 583 157" fill="none" stroke="black" stroke-width="4" /><path d="M 433 218 L 434 217 L 435 216" fill="none" stroke="black" stroke-width="4" /><path d="M 602 271 L 603 270 L 604 269" fill="none" stroke="black" stroke-width="4" /><path d="M 531 264 L 532 263 L 533 262" fill="none" stroke="black" stroke-width="4" /><path d="M 443 228 L 444 227 L 445 226" fill="none" stroke="black" stroke-width="4" /><path d="M 540 211 L 541 210 L 542 209" fill="none" stroke="black" stroke-width="4" /><path d="M 523 111 L 524 110 L 525 109" fill="none" stroke="black" stroke-width="4" /><path d="M 595 257 L 596 256 L 597 255" fill="none" stroke="black" stroke-width="4" /><path d="M 565 263 L 566 262 L 567 261" fill="none" stroke="black" stroke-width="4" /><path d="M 423 138 L 424 137 L 425 136" fill="none" stroke="black" stroke-width="4" /></svg>