<?xml version="1.0" encoding="utf-8" ?>
<svg baseProfile="full" height="2160" version="1.1" width="3840" xmlns="http://www.w3.org/2000/svg" xmlns:ev="http://www.w3.org/2001/xml-events" xmlns:xlink="http://www.w3.org/1999/xlink"><defs><clipPath id="silhouette_clip_path"><path d="M 2654.0,2072.0 C 2626.67,1985.33 2599.33,1898.67 2572.0,1812.0 C 2525.33,1838.67 2480.22,1868.26 2432.0,1892.0 C 2393.35,1911.03 2353.19,1927.37 2312.0,1940.0 C 2252.95,1958.11 2192.64,1972.28 2132.0,1984.0 C 2092.46,1991.64 2052.23,1996.12 2012.0,1998.0 C 1952.07,2000.8 1891.92,2001.18 1832.0,1998.0 C 1785.06,1995.51 1738.28,1989.26 1692.0,1981.0 C 1644.8,1972.57 1597.97,1961.61 1552.0,1948.0 C 1511.15,1935.9 1470.59,1922.05 1432.0,1904.0 C 1377.01,1878.27 1323.77,1848.71 1272.0,1817.0 C 1243.57,1799.59 1217.48,1778.5 1192.0,1757.0 C 1111.09,1688.73 1041.35,1608.27 980.0,1522.0 C 891.919,1398.14 813.502,1267.66 728.0,1142.0 C 709.135,1114.28 689.128,1087.2 667.0,1062.0 C 631.375,1021.43 594.875,981.397 555.0,945.0 C 537.247,928.795 516.238,916.256 495.0,905.0 C 468.22,890.807 444.161,887.738 415.0,896.0 C 407.35,898.168 400.511,903.268 395.0,909.0 C 383.632,920.823 373.386,933.905 365.0,948.0 C 357.593,960.451 351.587,973.964 348.0,988.0 C 336.2,1034.17 325.466,1080.78 319.0,1128.0 C 311.105,1185.65 309.667,1244.0 305.0,1302.0 C 307.667,1228.67 308.567,1155.25 313.0,1082.0 C 316.236,1028.53 320.982,975.106 328.0,922.0 C 333.327,881.684 340.047,841.43 350.0,802.0 C 357.431,772.563 370.0,744.667 380.0,716.0 C 395.333,696.333 407.205,673.391 426.0,657.0 C 436.823,647.561 451.886,643.646 466.0,641.0 C 479.109,638.542 492.974,639.134 506.0,642.0 C 526.695,646.553 547.466,652.729 566.0,663.0 C 627.81,697.253 684.456,740.271 746.0,775.0 C 777.954,793.031 810.803,810.636 846.0,821.0 C 871.679,828.561 899.364,830.664 926.0,828.0 C 947.084,825.892 967.736,817.744 986.0,807.0 C 1008.04,794.038 1028.42,777.456 1045.0,758.0 C 1071.15,727.322 1094.03,693.568 1113.0,658.0 C 1136.89,613.201 1155.78,565.764 1173.0,518.0 C 1213.49,405.646 1245.8,290.458 1286.0,178.0 C 1292.77,159.069 1320.52,93.4744 1352.0,87.0 C 1444.09,68.0573 1538.94,66.4112 1632.0,53.0 C 1652.4,50.0593 1671.39,37.6565 1692.0,38.0 C 1712.78,38.3464 1734.57,43.6756 1752.0,55.0 C 1781.47,74.143 1806.45,100.048 1829.0,127.0 C 1893.68,204.319 1949.35,288.827 2013.0,367.0 C 2041.44,401.935 2071.45,435.941 2105.0,466.0 C 2135.74,493.537 2169.81,517.444 2205.0,539.0 C 2223.48,550.317 2244.34,557.459 2265.0,564.0 C 2284.51,570.178 2304.55,576.233 2325.0,577.0 C 2358.39,578.252 2392.4,577.335 2425.0,570.0 C 2459.79,562.172 2493.11,547.947 2525.0,532.0 C 2560.08,514.46 2593.22,492.986 2625.0,470.0 C 2693.34,420.568 2756.01,363.522 2825.0,315.0 C 2856.25,293.022 2890.54,275.492 2925.0,259.0 C 2937.47,253.031 2951.28,249.715 2965.0,248.0 C 2978.23,246.346 2991.95,246.228 3005.0,249.0 C 3019.05,251.985 3032.78,257.464 3045.0,265.0 C 3057.47,272.684 3067.0,284.333 3078.0,294.0 C 3138.67,334.333 3199.33,374.667 3260.0,415.0 C 3257.0,455.0 3256.25,495.233 3251.0,535.0 C 3242.24,601.334 3229.0,667.0 3218.0,733.0 C 3210.33,695.333 3202.67,657.667 3195.0,620.0 C 3153.33,771.333 3114.0,923.329 3070.0,1074.0 C 3050.32,1141.39 3027.87,1207.98 3004.0,1274.0 C 2996.5,1294.76 2987.2,1314.98 2976.0,1334.0 C 2951.79,1375.11 2925.11,1414.74 2898.0,1454.0 C 2851.43,1521.44 2785.56,1577.96 2755.0,1654.0 C 2711.75,1761.62 2708.24,1881.26 2681.0,1994.0 C 2674.54,2020.74 2663.0,2046.0 2654.0,2072.0" /></clipPath></defs><path d="M 2648.03,2073.88 C 2629.76,2016.73 2611.45,1959.59 2593.18,1902.44 C 2583.78,1873.03 2574.45,1843.6 2564.99,1814.21 A 7.350115645348937 7.350115645348937 0 1 1 2579.01 1809.79 C 2588.12,1839.29 2597.37,1868.75 2606.54,1898.23 C 2624.36,1955.52 2642.15,2012.83 2659.97,2070.12 A 6.259017494782869 6.259017494782869 0 1 1 2648.03 2073.88 Z" fill="black" stroke-width="0" /><path d="M 2575.65,1818.39 C 2569.15,1820.42 2562.36,1821.71 2556.14,1824.49 C 2550.06,1827.22 2544.73,1831.37 2539.01,1834.79 C 2533.29,1838.22 2527.55,1841.62 2521.82,1845.03 C 2498.88,1858.71 2475.98,1872.5 2452.36,1885 C 2416.52,1903.97 2379.18,1920.34 2340.93,1933.78 C 2312.76,1943.68 2283.96,1951.83 2255.11,1959.45 C 2222.81,1967.98 2190.26,1975.5 2157.54,1982.21 C 2129.56,1987.96 2101.48,1993.04 2073.09,1996.36 C 2046.2,1999.51 2019.19,2001.08 1992.15,2002.12 C 1972.12,2002.88 1952.1,2003.35 1932.06,2003.48 C 1891.97,2003.72 1851.8,2002.98 1811.8,2000.03 C 1785.13,1998.06 1758.54,1994.84 1732.09,1990.91 C 1698.68,1985.93 1665.43,1979.71 1632.49,1972.25 C 1605.14,1966.05 1577.97,1959.06 1551.11,1950.99 C 1525.49,1943.29 1500,1935.15 1475,1925.56 C 1453.76,1917.42 1433.08,1908.07 1412.63,1898.13 C 1388.6,1886.45 1364.9,1874.04 1341.55,1861.08 C 1324.03,1851.36 1306.68,1841.32 1289.5,1831.01 C 1271.62,1820.28 1254.01,1809.29 1237.19,1796.93 C 1221,1785.03 1205.64,1772.13 1190.27,1759.21 C 1164.66,1737.68 1140.2,1714.86 1116.75,1691 C 1074.6,1648.1 1035.67,1602.11 999.633,1553.97 C 972.163,1517.28 946.312,1479.4 920.711,1441.39 C 883.45,1386.08 847.319,1330.03 811.018,1274.09 C 792.879,1246.13 774.524,1218.32 756.021,1190.6 C 730.938,1153.03 705.916,1115.3 677.11,1080.43 C 664.278,1064.89 650.735,1049.93 637.204,1035.01 C 623.801,1020.23 610.226,1005.6 596.325,991.285 C 587.075,981.761 577.703,972.351 568.126,963.156 C 558.166,953.592 548.051,944.102 536.999,935.824 C 526.471,927.938 515.131,921.158 503.715,914.622 C 489.032,906.214 473.65,898.685 456.656,896.423 C 441.052,894.346 434.435,896.334 418.945,899.136 C 417.98,899.31 416.969,899.44 416.107,899.907 C 410.838,902.763 405.658,905.795 400.633,909.062 C 399.553,909.763 398.739,910.81 397.871,911.76 C 393.452,916.597 388.912,921.336 384.778,926.418 C 374.642,938.881 365.757,952.559 359.216,967.268 C 356.579,973.199 354.607,979.406 352.43,985.521 C 352.039,986.62 351.806,987.769 351.516,988.899 C 349.865,995.346 348.214,1001.79 346.607,1008.25 C 343.395,1021.17 340.272,1034.11 337.341,1047.09 C 331.481,1073.05 326.693,1099.14 322.625,1125.43 C 320.445,1139.52 318.942,1153.82 317.541,1168.01 C 314.924,1194.52 313.387,1221.12 311.645,1247.7 C 310.454,1265.88 309.141,1284.05 307.758,1302.22 A 2.7667605606557117 2.7667605606557117 0 1 1 302.242 1301.78 C 306.158,1250.37 307.709,1198.75 313.349,1147.48 C 317.118,1113.21 323.235,1079.27 330.561,1045.59 C 333.402,1032.53 336.461,1019.51 339.637,1006.53 C 341.222,1000.05 342.848,993.573 344.484,987.101 C 344.786,985.905 345.048,984.695 345.45,983.529 C 347.677,977.068 349.641,970.495 352.367,964.228 C 359.016,948.941 368.403,934.563 378.764,921.563 C 382.988,916.263 387.603,911.284 392.129,906.24 C 393.102,905.156 394.033,903.981 395.254,903.187 C 401.316,899.247 407.558,895.579 413.893,892.093 C 414.803,891.592 415.879,891.467 416.899,891.276 C 434.254,888.025 440.233,885.84 457.749,888.059 C 475.835,890.35 492.285,898.175 507.903,907.119 C 513.766,910.477 519.646,913.814 525.351,917.434 C 531.075,921.066 536.747,924.799 542.171,928.864 C 553.506,937.36 563.81,947.177 574.067,956.948 C 598.29,980.025 621.268,1004.33 643.64,1029.2 C 657.196,1044.26 670.777,1059.39 683.628,1075.07 C 692.126,1085.44 700.36,1096.03 708.272,1106.86 C 716.172,1117.66 723.801,1128.67 731.325,1139.74 C 734.325,1144.15 737.184,1148.66 740.143,1153.1 C 747.543,1164.2 755.054,1175.23 762.397,1186.38 C 777.08,1208.65 791.538,1231.08 805.999,1253.5 C 838.521,1303.92 870.913,1354.42 903.822,1404.59 C 922.092,1432.44 940.626,1460.1 959.565,1487.51 C 970.419,1503.21 981.282,1518.91 992.525,1534.34 C 1019.96,1571.99 1048.9,1608.57 1079.87,1643.39 C 1110.81,1678.16 1143.81,1711.02 1178.74,1741.78 C 1193.74,1755 1209.09,1767.81 1224.83,1780.13 C 1235.28,1788.31 1245.88,1796.31 1256.85,1803.76 C 1268.43,1811.64 1280.47,1818.83 1292.5,1825.99 C 1309.67,1836.2 1326.97,1846.17 1344.45,1855.83 C 1361.94,1865.48 1379.55,1874.85 1397.41,1883.8 C 1411.62,1890.93 1425.88,1898.15 1440.45,1904.54 C 1452.6,1909.87 1464.85,1914.99 1477.23,1919.74 C 1515.68,1934.48 1555.26,1946.33 1595.11,1956.63 C 1634.11,1966.71 1673.59,1974.86 1713.34,1981.33 C 1739.6,1985.61 1765.96,1989.21 1792.45,1991.72 C 1832.2,1995.47 1872.13,1996.75 1912.04,1996.95 C 1938.67,1997.09 1965.3,1996.54 1991.9,1995.57 C 2018.78,1994.59 2045.6,1992.93 2072.34,1989.85 C 2085.53,1988.33 2098.7,1986.52 2111.8,1984.34 C 2133.23,1980.77 2154.55,1976.34 2175.78,1971.76 C 2208.31,1964.76 2240.7,1957.02 2272.77,1948.14 C 2301.4,1940.22 2329.8,1931.61 2357.59,1921.09 C 2376.24,1914.04 2394.61,1906.27 2412.69,1897.87 C 2419.1,1894.89 2425.51,1891.92 2431.8,1888.71 C 2437.71,1885.68 2443.65,1882.72 2449.52,1879.63 C 2461.27,1873.43 2472.87,1866.94 2484.39,1860.32 C 2501.73,1850.36 2518.78,1839.91 2535.97,1829.7 C 2541.72,1826.3 2547.9,1823.57 2553.26,1819.59 C 2558.76,1815.49 2563.32,1810.27 2568.35,1805.61 A 7.358980907707394 7.358980907707394 0 1 1 2575.65 1818.39 Z" fill="black" stroke-width="0" /><path d="M 302.235,1301.9 C 304.526,1235.26 305.519,1168.56 308.948,1101.97 C 311.353,1055.25 314.983,1008.6 320.106,962.102 C 323.79,928.666 328.172,895.273 334.089,862.153 C 336.442,848.986 339.026,835.855 341.939,822.801 C 343.547,815.601 345.024,808.349 347.051,801.256 C 348.899,794.792 350.623,788.29 352.659,781.883 C 356.715,769.124 361.594,756.64 366.319,744.114 C 369.973,734.43 373.627,724.739 377.129,714.998 A 3.0408296565246458 3.0408296565246458 0 1 1 382.871 717.002 C 379.348,726.802 375.677,736.541 372.001,746.286 C 367.313,758.711 362.473,771.095 358.448,783.751 C 356.45,790.032 354.76,796.407 352.949,802.744 C 350.937,809.783 349.471,816.979 347.876,824.123 C 344.981,837.093 342.414,850.138 340.077,863.22 C 334.185,896.202 329.807,929.474 326.073,962.764 C 320.131,1015.75 316.251,1068.97 313.776,1122.23 C 310.991,1182.15 309.826,1242.15 307.765,1302.1 A 2.7668077273276337 2.7668077273276337 0 1 1 302.235 1301.9 Z" fill="black" stroke-width="0" /><path d="M 377.602,714.13 C 381.485,708.771 385.427,703.455 389.251,698.053 C 393.133,692.57 396.729,686.884 400.716,681.478 C 404.723,676.045 408.782,670.635 413.224,665.552 C 416.575,661.715 419.947,657.783 424.053,654.767 C 429.629,650.672 435.65,647.07 442.03,644.396 C 448.376,641.737 455.272,640.652 461.924,638.895 C 463.09,638.587 464.275,638.314 465.476,638.204 C 472.297,637.579 479.123,636.515 485.97,636.695 C 492.802,636.874 499.53,638.407 506.309,639.276 C 513.071,640.142 519.603,642.342 526.149,644.251 C 532.633,646.142 539.081,648.198 545.376,650.649 C 551.667,653.098 557.73,656.1 563.859,658.931 C 565.022,659.469 566.132,660.117 567.246,660.752 C 573.054,664.061 578.867,667.361 584.622,670.762 C 590.372,674.161 596.072,677.643 601.758,681.148 C 650.561,711.237 697.101,744.915 746.955,773.308 C 770.044,786.457 793.466,799.364 818.11,809.41 C 833.489,815.679 849.324,820.989 865.673,824.097 C 878.692,826.572 892.013,827.739 905.265,827.704 C 911.878,827.686 918.475,827.066 925.079,826.729 C 931.887,826.381 938.635,824.854 945.231,823.131 C 951.642,821.457 957.909,819.21 964.035,816.684 C 978.203,810.843 989.59,804.056 1002.15,795.271 C 1013.03,787.66 1023.27,779.067 1032.72,769.748 C 1041.55,761.053 1049.22,751.663 1056.92,741.965 C 1073.5,721.11 1088.49,699.012 1101.94,676.02 C 1115.57,652.71 1127.47,628.395 1138.35,603.695 C 1150.77,575.496 1161.83,546.724 1172.28,517.74 C 1199.4,442.465 1222.87,365.976 1247.56,289.888 C 1255.8,264.521 1264.15,239.191 1272.82,213.971 C 1280.75,190.901 1288.28,167.634 1299.37,145.827 C 1306.38,132.052 1313.97,118.287 1324.05,106.578 C 1328.56,101.346 1333.5,96.3716 1339.12,92.3523 C 1342.92,89.6314 1347.44,87.9419 1351.92,86.6332 C 1358.32,84.7679 1365,84.0696 1371.56,82.8925 C 1378.12,81.716 1384.69,80.6133 1391.26,79.573 C 1430.78,73.3233 1470.64,69.6103 1510.46,65.9066 C 1537.03,63.435 1563.62,61.1104 1590.14,58.1058 C 1596.77,57.3553 1603.39,56.5777 1610,55.742 C 1616.61,54.9066 1623.21,53.9817 1629.82,53.0926 C 1630.54,52.9959 1631.27,52.9582 1631.97,52.7846 C 1638.43,51.1893 1644.93,49.6936 1651.31,47.7887 C 1657.76,45.8649 1663.9,42.987 1670.42,41.3065 C 1676.8,39.658 1683.39,38.8813 1689.9,37.8299 C 1690.59,37.7181 1691.3,37.7639 1692,37.8216 C 1698.64,38.3694 1705.35,38.4987 1711.91,39.6457 C 1718.52,40.8011 1725.09,42.4328 1731.4,44.7058 C 1737.66,46.9562 1743.49,50.243 1749.46,53.1588 C 1750.4,53.6165 1751.26,54.2215 1752.12,54.8175 C 1757.58,58.6153 1763.13,62.2906 1768.4,66.3376 C 1778.98,74.4565 1788.9,83.462 1798.36,92.8631 C 1813.95,108.355 1828.06,125.233 1841.92,142.267 C 1862.95,168.128 1883.09,194.695 1903,221.426 C 1926.89,253.514 1950.39,285.899 1974.64,317.724 C 1986.77,333.633 1999.13,349.332 2011.65,364.931 C 2024.67,381.159 2038.19,397.051 2052.13,412.497 C 2068.92,431.095 2086.42,449.176 2105.17,465.809 C 2120.14,479.082 2135.7,491.592 2151.87,503.366 C 2162.65,511.216 2173.67,518.746 2184.86,526.004 C 2197.12,533.955 2209.51,541.869 2222.74,548.075 C 2234.81,553.737 2247.54,557.889 2260.17,562.149 C 2268.12,564.83 2276.16,567.295 2284.26,569.48 C 2290.7,571.217 2297.15,572.946 2303.72,574.138 C 2310.23,575.321 2316.86,575.815 2323.44,576.595 C 2330.55,577.44 2337.82,577.054 2344.99,577.082 C 2351.66,577.108 2358.34,577.068 2365.01,576.822 C 2378.32,576.332 2391.64,575.301 2404.81,573.317 C 2411.55,572.303 2418.3,571.265 2424.9,569.558 C 2431.33,567.894 2437.81,566.416 2444.18,564.549 C 2450.57,562.678 2456.88,560.576 2463.15,558.35 C 2482.04,551.639 2500.21,543.352 2518.27,534.693 C 2538.44,525.02 2557.91,513.819 2576.83,501.905 C 2598.76,488.095 2619.94,473.121 2640.67,457.563 C 2694,417.526 2744.27,373.599 2797.67,333.653 C 2811.83,323.065 2826.17,312.585 2841.06,303.05 C 2857.94,292.247 2875.53,282.574 2893.35,273.436 C 2899.29,270.389 2905.28,267.441 2911.27,264.483 C 2915.68,262.304 2919.99,259.917 2924.53,258.025 C 2930.73,255.443 2936.98,252.904 2943.44,251.079 C 2955.5,247.674 2972.46,245.415 2984.99,245.719 C 2991.71,245.882 2998.35,247.142 3005.04,247.864 C 3011.78,248.592 3018.22,251.208 3024.55,253.646 C 3030.83,256.062 3036.72,259.369 3042.75,262.349 C 3043.74,262.837 3044.71,263.378 3045.59,264.047 C 3050.92,268.119 3056.3,272.151 3061.36,276.557 C 3067.4,281.82 3072.87,287.696 3078.82,293.071 A 1.2391291296714073 1.2391291296714073 0 1 1 3077.18 294.929 C 3071.22,289.536 3065.86,283.51 3059.82,278.189 C 3054.91,273.849 3049.63,269.935 3044.41,265.953 C 3043.55,265.296 3042.6,264.765 3041.63,264.286 C 3035.7,261.358 3029.91,258.109 3023.75,255.736 C 3017.53,253.341 3011.2,250.77 3004.58,250.055 C 2998.04,249.35 2991.53,248.116 2984.95,247.958 C 2972.46,247.659 2956.04,249.794 2944.01,253.164 C 2933.24,256.18 2922.22,261.421 2912.18,266.353 C 2906.2,269.293 2900.23,272.248 2894.29,275.29 C 2876.52,284.403 2858.99,294 2842.14,304.74 C 2827.24,314.237 2812.99,324.646 2798.83,335.196 C 2740,379.017 2684.88,427.584 2625.4,470.558 C 2604.37,485.759 2582.79,500.246 2560.4,513.39 C 2546.83,521.358 2532.99,528.952 2518.77,535.718 C 2500.65,544.341 2482.44,552.629 2463.48,559.277 C 2457.19,561.485 2450.84,563.555 2444.44,565.418 C 2438.04,567.278 2431.55,568.773 2425.1,570.442 C 2418.48,572.155 2411.69,573.131 2404.93,574.136 C 2391.73,576.098 2378.38,577.105 2365.04,577.571 C 2358.36,577.804 2351.67,577.87 2344.98,577.831 C 2337.81,577.788 2330.53,578.111 2323.4,577.265 C 2316.79,576.481 2310.14,575.985 2303.59,574.796 C 2297.01,573.602 2290.53,571.88 2284.08,570.126 C 2275.97,567.92 2267.96,565.401 2259.99,562.713 C 2247.34,558.445 2234.58,554.285 2222.49,548.612 C 2209.24,542.394 2196.85,534.424 2184.58,526.434 C 2173.4,519.15 2162.36,511.637 2151.57,503.782 C 2135.38,491.997 2119.81,479.477 2104.83,466.191 C 2086.06,449.546 2068.55,431.452 2051.75,412.841 C 2037.8,397.389 2024.28,381.49 2011.25,365.255 C 1998.73,349.652 1986.36,333.949 1974.24,318.036 C 1949.98,286.209 1926.48,253.822 1902.59,221.732 C 1882.68,195.008 1862.54,168.446 1841.52,142.591 C 1827.68,125.571 1813.57,108.706 1797.99,93.2269 C 1788.55,83.841 1778.64,74.8707 1768.09,66.7443 C 1762.83,62.6948 1757.31,58.9916 1751.88,55.1825 C 1751.03,54.5865 1750.17,53.9874 1749.24,53.5319 C 1743.29,50.629 1737.49,47.3564 1731.26,45.1161 C 1724.97,42.8516 1718.42,41.2385 1711.84,40.0746 C 1705.29,38.9186 1698.62,38.7482 1692,38.1784 C 1691.3,38.1187 1690.59,38.0756 1689.91,38.1867 C 1683.43,39.2338 1676.87,40.0066 1670.52,41.6485 C 1664.01,43.3292 1657.86,46.1923 1651.43,48.1265 C 1645.03,50.0503 1638.51,51.5915 1632.03,53.2154 C 1631.33,53.3916 1630.6,53.4268 1629.88,53.5235 C 1623.27,54.413 1616.67,55.3382 1610.06,56.1739 C 1603.44,57.0098 1596.82,57.7876 1590.19,58.5383 C 1563.67,61.5435 1537.08,63.9461 1510.51,66.4181 C 1470.7,70.1208 1430.87,73.988 1391.37,80.2354 C 1384.8,81.275 1378.23,82.364 1371.68,83.5525 C 1365.13,84.7414 1358.46,85.4805 1352.08,87.3668 C 1347.69,88.6623 1343.29,90.3613 1339.59,93.0349 C 1334.04,97.0296 1329.13,101.916 1324.69,107.109 C 1319.7,112.952 1315.5,119.455 1311.43,125.975 C 1307.34,132.526 1303.74,139.377 1300.25,146.266 C 1289.24,168.008 1281.75,191.344 1273.9,214.34 C 1265.28,239.572 1256.98,264.911 1248.8,290.287 C 1226.3,360.089 1204.67,430.188 1180.39,499.402 C 1165.77,541.084 1150.25,582.517 1131.56,622.575 C 1122.94,641.058 1113.7,659.26 1103.47,676.91 C 1093.41,694.261 1082.41,711.029 1070.55,727.203 C 1062.66,737.968 1054.49,748.549 1045.76,758.65 C 1042.04,762.959 1038.24,767.215 1034.2,771.22 C 1024.67,780.647 1014.37,789.357 1003.43,797.103 C 997.977,800.969 992.235,804.417 986.587,807.999 C 985.444,808.724 984.273,809.408 983.066,810.021 C 977.073,813.065 971.193,816.368 964.993,818.965 C 958.777,821.57 952.404,823.857 945.893,825.597 C 932.72,829.117 918.917,830.376 905.282,830.492 C 891.845,830.606 878.329,829.554 865.109,827.147 C 858.518,825.947 852.022,824.257 845.54,822.563 C 842.201,821.69 838.922,820.594 835.665,819.452 C 829.357,817.239 823.059,814.988 816.854,812.501 C 798.183,805.019 780.265,795.904 762.582,786.361 C 741.396,774.926 720.707,762.724 700.296,749.956 C 672.025,732.271 644.38,713.606 616.185,695.801 C 604.939,688.699 593.601,681.738 582.099,675.061 C 576.354,671.726 570.547,668.5 564.754,665.248 C 563.674,664.643 562.608,664.006 561.483,663.49 C 555.528,660.764 549.638,657.866 543.521,655.528 C 537.355,653.171 531.031,651.233 524.683,649.423 C 518.32,647.61 511.837,646.248 505.414,644.664 C 499.024,643.088 492.392,642.442 485.812,642.304 C 479.365,642.169 472.944,643.185 466.524,643.796 C 465.351,643.908 464.193,644.168 463.054,644.472 C 456.718,646.162 450.155,647.235 444.111,649.777 C 438.357,652.196 432.945,655.493 427.947,659.233 C 424.076,662.131 420.894,665.874 417.724,669.526 C 413.432,674.469 409.48,679.704 405.597,684.975 C 401.635,690.351 398.049,695.995 394.2,701.452 C 390.316,706.96 386.332,712.397 382.398,717.87 A 3.0409380131795083 3.0409380131795083 0 1 1 377.602 714.13 Z" fill="black" stroke-width="0" /><path d="M 3078.68,292.97 C 3100.95,307.646 3123.16,322.41 3145.39,337.13 C 3183.9,362.625 3222.48,388.009 3260.95,413.578 A 1.7101415146120882 1.7101415146120882 0 1 1 3259.05 416.422 C 3220.59,390.853 3182.26,365.098 3143.85,339.452 C 3121.67,324.645 3099.46,309.881 3077.32,295.03 A 1.2342204017110239 1.2342204017110239 0 1 1 3078.68 292.97 Z" fill="black" stroke-width="0" /><path d="M 3261.7,415.128 C 3261.22,421.769 3260.69,428.408 3260.25,435.052 C 3258.9,455.02 3257.95,475.011 3256.37,494.964 C 3255.31,508.272 3253.85,521.546 3252.31,534.807 C 3251.53,541.553 3250.43,548.26 3249.44,554.979 C 3246.52,574.775 3243.26,594.51 3239.84,614.225 C 3234.15,647.073 3228.11,679.861 3222.35,712.697 C 3221.15,719.507 3219.89,726.306 3218.76,733.126 A 0.7703739351771488 0.7703739351771488 0 1 1 3217.24 732.874 C 3218.38,726.051 3219.45,719.216 3220.6,712.396 C 3227.28,672.957 3234.67,633.641 3241.02,594.145 C 3243.13,580.991 3245.2,567.828 3247.07,554.636 C 3248.02,547.922 3249.02,541.213 3249.78,534.474 C 3251.27,521.257 3252.69,508.027 3253.67,494.762 C 3254.64,481.47 3255.28,468.155 3256,454.846 C 3256.71,441.519 3257.48,428.194 3258.3,414.872 A 1.7048120130968627 1.7048120130968627 0 1 1 3261.7 415.128 Z" fill="black" stroke-width="0" /><path d="M 3217.25,733.153 C 3209.58,695.487 3201.8,657.843 3194.13,620.176 A 0.8876237941830006 0.8876237941830006 0 1 1 3195.87 619.824 C 3203.54,657.49 3211.08,695.181 3218.75,732.847 A 0.7654469282713244 0.7654469282713244 0 1 1 3217.25 733.153 Z" fill="black" stroke-width="0" /><path d="M 3195.85,620.235 C 3194.5,626.777 3193.36,633.365 3191.8,639.861 C 3190.25,646.344 3188.28,652.718 3186.53,659.151 C 3184.78,665.584 3183.05,672.022 3181.31,678.456 C 3174.34,704.195 3167.4,729.942 3160.45,755.686 C 3139.6,832.932 3118.9,910.216 3097.33,987.264 C 3087.37,1022.87 3077.34,1058.48 3066.74,1093.9 C 3057.18,1125.87 3047.01,1157.64 3036.43,1189.28 C 3027.97,1214.6 3019.18,1239.78 3010.25,1264.94 C 3004.55,1280.98 2998.53,1296.79 2991.14,1312.15 C 2988.22,1318.22 2985.07,1324.16 2981.93,1330.11 C 2980.94,1331.99 2979.83,1333.8 2978.76,1335.62 C 2975.36,1341.38 2971.99,1347.15 2968.51,1352.85 C 2958.1,1369.96 2947.23,1386.83 2936.15,1403.51 C 2928.77,1414.64 2921.25,1425.67 2913.69,1436.68 C 2905.52,1448.56 2897.42,1460.49 2888.79,1472.05 C 2880.75,1482.81 2872.28,1493.26 2863.74,1503.63 C 2838.28,1534.54 2811.31,1564.32 2788.9,1597.6 C 2785.24,1603.04 2781.66,1608.54 2778.28,1614.16 C 2774.9,1619.75 2770.97,1625.12 2768.61,1631.21 C 2766.2,1637.4 2765.88,1644.22 2764.12,1650.62 C 2763.55,1652.72 2762.4,1654.63 2761.61,1656.65 C 2759.22,1662.76 2756.82,1668.86 2754.6,1675.02 C 2750.17,1687.35 2746.21,1699.85 2742.61,1712.45 C 2731.7,1750.64 2724.34,1789.72 2717.72,1828.84 C 2711.03,1868.48 2705.21,1908.27 2697.55,1947.74 C 2695,1960.91 2692.18,1974.02 2689.22,1987.11 C 2688.58,1989.91 2687.99,1992.73 2687.23,1995.51 C 2685.44,2002.08 2683.66,2008.67 2681.59,2015.16 C 2675.21,2035.09 2666.81,2054.31 2659.91,2074.05 A 6.255445627611116 6.255445627611116 0 1 1 2648.09 2069.95 C 2650.59,2062.78 2653.23,2055.65 2655.88,2048.53 C 2660.5,2036.13 2665.47,2023.85 2669.46,2011.23 C 2672.26,2002.34 2674.69,1993.32 2676.72,1984.22 C 2682.51,1958.27 2687.4,1932.17 2691.73,1905.94 C 2701.55,1846.5 2709.27,1786.57 2723.98,1728.06 C 2728.89,1708.55 2734.53,1689.22 2741.27,1670.26 C 2743.53,1663.91 2745.96,1657.63 2748.39,1651.35 C 2749.23,1649.2 2749.77,1646.88 2751.05,1644.97 C 2754.88,1639.26 2759.84,1634.36 2763.63,1628.62 C 2767.29,1623.06 2769.93,1616.9 2773.33,1611.18 C 2780.15,1599.73 2787.72,1588.72 2795.6,1577.98 C 2815.47,1550.89 2837.76,1525.71 2859.04,1499.76 C 2867.51,1489.45 2875.88,1479.04 2883.86,1468.35 C 2892.43,1456.87 2900.49,1445.01 2908.54,1433.16 C 2916.01,1422.13 2923.43,1411.07 2930.75,1399.94 C 2941.73,1383.26 2952.5,1366.47 2962.92,1349.44 C 2971.15,1335.98 2978.71,1323.64 2985.74,1309.52 C 2996.2,1288.51 3003.84,1266.29 3011.68,1244.21 C 3025.05,1206.54 3037.98,1168.72 3050.09,1130.62 C 3063.3,1089.06 3075.3,1047.14 3087.22,1005.19 C 3109.09,928.246 3129.97,851.028 3150.88,773.821 C 3157.85,748.08 3164.81,722.335 3171.79,696.596 C 3175.28,683.726 3178.8,670.865 3182.33,658.004 C 3184.09,651.573 3185.63,645.08 3187.6,638.71 C 3189.58,632.327 3191.97,626.08 3194.15,619.765 A 0.8818871809930405 0.8818871809930405 0 1 1 3195.85 620.235 Z" fill="black" stroke-width="0" /><path d="M 3248.83,432.53 C 3231.4,493.597 3213.76,554.608 3196.09,615.606 A 2.1760827190161227 2.1760827190161227 0 1 1 3191.91 614.394 C 3209.58,553.395 3227.26,492.399 3245.17,431.47 A 1.9052034012146064 1.9052034012146064 0 1 1 3248.83 432.53 Z" fill="black" stroke-width="0" /><path d="M 2340.22,1178.96 C 2329.84,1170.58 2319.47,1162.18 2309.2,1153.67 C 2288.68,1136.66 2268.31,1119.47 2247.34,1103.01 C 2233.1,1091.83 2218.59,1081.1 2203.87,1070.57 C 2182.22,1055.09 2160.24,1040.04 2136.91,1027.19 C 2125.61,1020.96 2113.96,1015.37 2102.21,1010.05 C 2084.02,1001.82 2065.49,994.404 2046.57,988.026 C 2033.98,983.785 2021.21,980.109 2008.38,976.666 C 1980.2,969.1 1950.86,965.432 1921.7,965.236 C 1887.59,965.006 1853.53,969.743 1820.33,977.344 C 1800.89,981.797 1781.43,986.972 1762.8,994.183 C 1739.55,1003.18 1717.44,1015.14 1695.84,1027.49 C 1658.52,1048.81 1622.97,1072.96 1589.07,1099.36 C 1562.77,1119.83 1537.59,1141.67 1512,1163 C 1503.97,1169.7 1495.85,1176.3 1487.78,1182.96 A 1.2369316876853091 1.2369316876853091 0 1 1 1486.22 1181.04 C 1509.7,1161.65 1532.67,1141.64 1556.09,1122.17 C 1571.5,1109.37 1587.13,1096.88 1603.05,1084.73 C 1631.99,1062.62 1662.59,1042.64 1694.16,1024.51 C 1715.88,1012.04 1738.12,999.981 1761.53,990.927 C 1780.32,983.658 1799.93,978.351 1819.53,973.862 C 1852.96,966.21 1887.37,961.354 1921.72,961.585 C 1951.14,961.782 1980.85,965.576 2009.27,973.205 C 2015.72,974.938 2022.18,976.651 2028.59,978.557 C 2047.83,984.282 2066.73,991.151 2085.26,998.865 C 2103.42,1006.42 2121.31,1014.74 2138.52,1024.26 C 2161.93,1037.22 2184.06,1052.33 2205.77,1067.92 C 2220.49,1078.5 2235.02,1089.35 2249.26,1100.57 C 2264.98,1112.96 2280.32,1125.82 2295.68,1138.65 C 2311.03,1151.46 2326.37,1164.29 2341.78,1177.04 A 1.2369316876854526 1.2369316876854526 0 1 1 2340.22 1178.96 Z" fill="black" stroke-width="0" /><path d="M 643.326,1025.1 C 722.119,1115.61 799.286,1207.53 878.395,1297.76 C 900.351,1322.81 922.46,1347.72 944.806,1372.42 C 964.797,1394.51 984.782,1416.62 1005.76,1437.79 C 1029.17,1461.41 1053.53,1484.05 1078.36,1506.16 C 1088.3,1515.02 1098.31,1523.81 1108.37,1532.54 C 1119.17,1541.92 1129.95,1551.35 1141.17,1560.22 C 1156.78,1572.57 1173.12,1583.91 1189.65,1594.96 C 1213.38,1610.81 1237.44,1626.17 1262.89,1639.15 C 1285.85,1650.87 1309.83,1660.75 1334.02,1669.59 C 1344.73,1673.51 1355.5,1677.21 1366.39,1680.56 C 1379.01,1684.45 1391.68,1688.31 1404.6,1691.02 C 1410.97,1692.37 1417.42,1693.38 1423.86,1694.32 C 1427,1694.79 1430.16,1695.02 1433.33,1695.24 C 1439.95,1695.71 1446.58,1696.07 1453.22,1696.4 C 1466.46,1697.06 1479.73,1697.51 1493,1697.44 C 1506.17,1697.37 1519.36,1696.9 1532.47,1695.61 C 1559.09,1692.97 1585.37,1687.27 1611.04,1679.84 C 1640.11,1671.44 1668.51,1660.71 1695.91,1647.84 C 1725.93,1633.75 1754.75,1617.28 1783.18,1600.27 C 1806.47,1586.33 1829.65,1572.16 1852.41,1557.36 C 1874.72,1542.85 1896.72,1527.83 1918.72,1512.85 C 1929.75,1505.34 1940.77,1497.82 1951.82,1490.34 C 1962.88,1482.84 1973.85,1475.19 1985,1467.83 C 1990.58,1464.14 1996.24,1460.57 2001.86,1456.94 C 2011.54,1450.69 2021.11,1444.33 2031.04,1438.48 C 2042.72,1431.6 2054.54,1424.91 2066.66,1418.86 C 2072.7,1415.84 2078.88,1413.1 2085,1410.26 C 2094.54,1405.82 2104.06,1401.36 2113.8,1397.39 C 2120.11,1394.81 2126.37,1392.1 2132.78,1389.8 C 2139.41,1387.42 2146.08,1385.12 2152.9,1383.34 C 2156.89,1382.3 2161.03,1381.83 2165.13,1381.36 C 2171.88,1380.57 2178.66,1379.97 2185.44,1379.54 C 2192.19,1379.11 2198.96,1379.02 2205.71,1378.8 C 2225.77,1378.18 2245.82,1378.07 2265.89,1377.96 C 2285.56,1377.86 2305.35,1377.94 2324.9,1375.42 C 2344.62,1372.88 2364.32,1370.15 2383.96,1366.97 C 2429.88,1359.54 2475.47,1350.22 2520.85,1340.02 C 2544.92,1334.62 2568.97,1329.04 2592.87,1322.92 C 2631.49,1313.03 2669.82,1301.96 2707.83,1289.94 C 2714.17,1287.93 2720.48,1285.85 2726.81,1283.8 C 2740.66,1279.3 2754.6,1274.97 2768.17,1269.66 C 2774.31,1267.26 2780.33,1264.57 2786.37,1261.94 C 2804.78,1253.93 2822.82,1245.12 2841.39,1237.47 C 2847.64,1234.89 2853.88,1232.27 2860.25,1230.02 C 2866.66,1227.75 2873.21,1225.92 2879.7,1223.91 C 2880.9,1223.54 2882.2,1222.34 2883.33,1222.89 C 2891.16,1226.7 2898.51,1231.49 2905.63,1236.51 C 2906.62,1237.21 2906.85,1238.63 2907.25,1239.77 C 2909.55,1246.25 2911.83,1252.75 2913.71,1259.36 C 2917.39,1272.34 2919.54,1285.7 2922.66,1298.82 C 2924.18,1305.19 2925.64,1311.58 2927.63,1317.81 C 2929.58,1323.9 2932.06,1329.81 2934.48,1335.74 C 2935.08,1337.21 2935.37,1339.07 2936.69,1339.96 C 2940.9,1342.76 2945.62,1344.83 2950.44,1346.38 C 2954.83,1347.8 2959.53,1347.98 2964.07,1348.78 A 3.39312540292877 3.39312540292877 0 1 1 2961.93 1355.22 C 2957.82,1354.52 2953.55,1354.47 2949.61,1353.12 C 2942.6,1350.72 2935.66,1347.86 2929.31,1344.04 C 2927.84,1343.16 2927.61,1341.05 2926.92,1339.48 C 2924.17,1333.24 2921.29,1327.04 2919.01,1320.61 C 2914.5,1307.88 2911.88,1294.55 2908.53,1281.46 C 2906.9,1275.07 2905.41,1268.62 2903.42,1262.32 C 2901.48,1256.2 2899.04,1250.24 2896.75,1244.23 C 2896.47,1243.52 2896.29,1242.69 2895.72,1242.18 C 2892.88,1239.61 2890.11,1236.79 2886.67,1235.11 C 2885.6,1234.59 2884.36,1235.7 2883.22,1236.08 C 2870.85,1240.22 2858.54,1244.59 2846.52,1249.65 C 2840.43,1252.22 2834.44,1255.04 2828.42,1257.77 C 2810.08,1266.08 2791.99,1274.91 2773.3,1282.44 C 2753.28,1290.5 2732.73,1297.03 2712.21,1303.65 C 2680.38,1313.92 2648.39,1323.72 2616.14,1332.61 C 2579.29,1342.75 2542.1,1351.55 2504.81,1359.91 C 2472.17,1367.23 2439.42,1374.13 2406.5,1380.1 C 2393.32,1382.48 2380.12,1384.74 2366.89,1386.83 C 2353.65,1388.92 2340.37,1390.71 2327.1,1392.58 C 2306.92,1395.42 2286.44,1396.6 2266.07,1396.99 C 2252.7,1397.24 2239.32,1396.93 2225.95,1396.82 C 2219.33,1396.77 2212.71,1396.62 2206.09,1396.73 C 2199.53,1396.83 2192.96,1397.12 2186.4,1397.44 C 2179.89,1397.76 2173.36,1398.02 2166.87,1398.64 C 2157.16,1399.58 2147.69,1402.19 2138.44,1405.31 C 2128.69,1408.61 2119.32,1413.02 2109.83,1417.01 C 2103.72,1419.57 2097.56,1421.98 2091.51,1424.66 C 2085.48,1427.33 2079.54,1430.2 2073.61,1433.06 C 2067.7,1435.91 2061.76,1438.71 2055.97,1441.8 C 2046.03,1447.09 2036.38,1453.11 2026.78,1459 C 2021.13,1462.47 2015.43,1465.87 2009.82,1469.41 C 2004.2,1472.94 1998.67,1476.62 1993.08,1480.21 C 1981.89,1487.41 1970.66,1494.55 1959.58,1501.9 C 1942.91,1512.96 1926.39,1524.25 1909.74,1535.32 C 1887.48,1550.12 1865.12,1564.8 1842.42,1578.92 C 1830.59,1586.27 1818.57,1593.32 1806.61,1600.46 C 1795.12,1607.32 1783.59,1614.12 1771.96,1620.75 C 1754.48,1630.7 1736.87,1640.45 1718.81,1649.34 C 1679.09,1668.9 1637.49,1684.84 1594.4,1695.16 C 1587.85,1696.73 1581.28,1698.24 1574.68,1699.56 C 1567.66,1700.96 1560.62,1702.4 1553.51,1703.26 C 1546.81,1704.07 1540.13,1705.03 1533.4,1705.64 C 1513.26,1707.48 1493.02,1707.62 1472.82,1706.98 C 1459.43,1706.55 1446.04,1705.78 1432.67,1704.76 C 1429.34,1704.5 1425.99,1704.28 1422.68,1703.78 C 1415.96,1702.78 1409.24,1701.69 1402.59,1700.26 C 1389.4,1697.44 1376.48,1693.46 1363.61,1689.44 C 1352.6,1685.99 1341.67,1682.23 1330.85,1678.25 C 1300,1666.91 1269.72,1653.69 1241.02,1637.64 C 1221.69,1626.84 1203.09,1614.7 1184.71,1602.37 C 1168.01,1591.16 1151.48,1579.63 1135.7,1567.16 C 1119.14,1554.06 1103.34,1539.96 1087.49,1526.03 C 1057.37,1499.56 1027.78,1472.44 999.546,1443.95 C 978.481,1422.69 958.336,1400.53 938.26,1378.34 C 911.408,1348.66 884.898,1318.68 858.586,1288.52 C 784.07,1203.12 711.092,1116.39 636.674,1030.9 A 4.412740191763013 4.412740191763013 0 1 1 643.326 1025.1 Z" fill="black" stroke-width="0" /><path d="M 2882.11,1239.61 C 2879.45,1245.81 2876.89,1252.05 2874.12,1258.19 C 2871.37,1264.29 2868.37,1270.28 2865.55,1276.35 C 2860,1288.31 2854.43,1300.27 2849.67,1312.57 C 2847.34,1318.61 2845.31,1324.77 2843.21,1330.89 C 2840.58,1338.54 2838.65,1346.42 2836.45,1354.2 C 2834.65,1360.59 2832.88,1367 2831.14,1373.41 C 2825.9,1392.65 2820.87,1411.95 2815.98,1431.29 C 2806.18,1470.04 2797.01,1508.95 2787.71,1547.82 C 2780.61,1577.5 2773.35,1607.14 2765.94,1636.75 A 7.157241088576013 7.157241088576013 0 1 1 2752.06 1633.25 C 2769.16,1564.87 2784.43,1496.03 2801.71,1427.69 C 2806.63,1408.25 2811.69,1388.86 2817.03,1369.54 C 2818.81,1363.09 2820.62,1356.65 2822.45,1350.23 C 2824.29,1343.8 2826.17,1337.38 2828.06,1330.96 C 2828.49,1329.48 2828.89,1327.99 2829.4,1326.54 C 2831.66,1320.11 2833.86,1313.64 2836.36,1307.3 C 2841.32,1294.76 2847.21,1282.6 2852.96,1270.4 C 2858.62,1258.4 2864.26,1246.4 2869.89,1234.39 A 6.644110173680223 6.644110173680223 0 1 1 2882.11 1239.61 Z" fill="black" stroke-width="0" /><path d="M 2268.48,1380.8 C 2274.81,1382.42 2281.13,1384.09 2287.48,1385.66 C 2294.42,1387.38 2301.46,1388.72 2308.34,1390.67 C 2310.17,1391.19 2311.83,1392.19 2313.52,1393.05 C 2319.6,1396.17 2325.7,1399.24 2331.64,1402.62 C 2337.65,1406.05 2343.62,1409.6 2349.35,1413.48 C 2355.13,1417.41 2360.65,1421.71 2366.15,1426.03 C 2374.16,1432.32 2381.17,1439.7 2388.33,1446.94 C 2397.88,1456.61 2407.08,1466.66 2415.76,1477.12 C 2447.41,1515.23 2474.05,1557.56 2495.83,1602.02 C 2507.01,1624.85 2516.83,1648.39 2526.35,1671.95 C 2536.36,1696.72 2545.86,1721.71 2555.42,1746.67 C 2563.16,1766.88 2570.71,1787.17 2578.82,1807.24 A 7.357309290766712 7.357309290766712 0 1 1 2565.18 1812.76 C 2562.05,1805 2558.84,1797.26 2555.73,1789.49 C 2545.8,1764.73 2536.34,1739.78 2526.48,1714.98 C 2507.48,1667.19 2487.7,1619.4 2461.84,1574.82 C 2455.24,1563.45 2448.2,1552.32 2440.84,1541.42 C 2437.17,1535.99 2433.32,1530.67 2429.54,1525.31 C 2424.53,1518.22 2419.26,1511.32 2413.82,1504.56 C 2405.62,1494.34 2396.95,1484.51 2388.02,1474.92 C 2383.57,1470.14 2379.1,1465.36 2374.47,1460.76 C 2369.84,1456.17 2365.03,1451.75 2360.23,1447.34 C 2358.03,1445.32 2355.84,1443.28 2353.47,1441.46 C 2348.46,1437.59 2343.39,1433.8 2338.13,1430.28 C 2332.79,1426.71 2327.26,1423.4 2321.68,1420.2 C 2314.77,1416.23 2307.97,1412.18 2300.59,1409.16 C 2294.87,1406.82 2289.25,1404.2 2283.36,1402.3 C 2276.86,1400.2 2270.13,1398.9 2263.52,1397.2 A 8.566819713289222 8.566819713289222 0 1 1 2268.48 1380.8 Z" fill="black" stroke-width="0" /></svg>