<?xml version="1.0" encoding="utf-8" ?>
<svg baseProfile="full" height="2160" version="1.1" width="3840" xmlns="http://www.w3.org/2000/svg" xmlns:ev="http://www.w3.org/2001/xml-events" xmlns:xlink="http://www.w3.org/1999/xlink"><defs><clipPath id="silhouette_clip_path"><path d="M 2654.0,2072.0 C 2626.67,1985.33 2599.33,1898.67 2572.0,1812.0 C 2525.33,1838.67 2480.22,1868.26 2432.0,1892.0 C 2393.35,1911.03 2353.19,1927.37 2312.0,1940.0 C 2252.95,1958.11 2192.64,1972.28 2132.0,1984.0 C 2092.46,1991.64 2052.23,1996.12 2012.0,1998.0 C 1952.07,2000.8 1891.92,2001.18 1832.0,1998.0 C 1785.06,1995.51 1738.28,1989.26 1692.0,1981.0 C 1644.8,1972.57 1597.97,1961.61 1552.0,1948.0 C 1511.15,1935.9 1470.59,1922.05 1432.0,1904.0 C 1377.01,1878.27 1323.77,1848.71 1272.0,1817.0 C 1243.57,1799.59 1217.48,1778.5 1192.0,1757.0 C 1111.09,1688.73 1041.35,1608.27 980.0,1522.0 C 891.919,1398.14 813.502,1267.66 728.0,1142.0 C 709.135,1114.28 689.128,1087.2 667.0,1062.0 C 631.375,1021.43 594.875,981.397 555.0,945.0 C 537.247,928.795 516.238,916.256 495.0,905.0 C 468.22,890.807 444.161,887.738 415.0,896.0 C 407.35,898.168 400.511,903.268 395.0,909.0 C 383.632,920.823 373.386,933.905 365.0,948.0 C 357.593,960.451 351.587,973.964 348.0,988.0 C 336.2,1034.17 325.466,1080.78 319.0,1128.0 C 311.105,1185.65 309.667,1244.0 305.0,1302.0 C 307.667,1228.67 308.567,1155.25 313.0,1082.0 C 316.236,1028.53 320.982,975.106 328.0,922.0 C 333.327,881.684 340.047,841.43 350.0,802.0 C 357.431,772.563 370.0,744.667 380.0,716.0 C 395.333,696.333 407.205,673.391 426.0,657.0 C 436.823,647.561 451.886,643.646 466.0,641.0 C 479.109,638.542 492.974,639.134 506.0,642.0 C 526.695,646.553 547.466,652.729 566.0,663.0 C 627.81,697.253 684.456,740.271 746.0,775.0 C 777.954,793.031 810.803,810.636 846.0,821.0 C 871.679,828.561 899.364,830.664 926.0,828.0 C 947.084,825.892 967.736,817.744 986.0,807.0 C 1008.04,794.038 1028.42,777.456 1045.0,758.0 C 1071.15,727.322 1094.03,693.568 1113.0,658.0 C 1136.89,613.201 1155.78,565.764 1173.0,518.0 C 1213.49,405.646 1245.8,290.458 1286.0,178.0 C 1292.77,159.069 1320.52,93.4744 1352.0,87.0 C 1444.09,68.0573 1538.94,66.4112 1632.0,53.0 C 1652.4,50.0593 1671.39,37.6565 1692.0,38.0 C 1712.78,38.3464 1734.57,43.6756 1752.0,55.0 C 1781.47,74.143 1806.45,100.048 1829.0,127.0 C 1893.68,204.319 1949.35,288.827 2013.0,367.0 C 2041.44,401.935 2071.45,435.941 2105.0,466.0 C 2135.74,493.537 2169.81,517.444 2205.0,539.0 C 2223.48,550.317 2244.34,557.459 2265.0,564.0 C 2284.51,570.178 2304.55,576.233 2325.0,577.0 C 2358.39,578.252 2392.4,577.335 2425.0,570.0 C 2459.79,562.172 2493.11,547.947 2525.0,532.0 C 2560.08,514.46 2593.22,492.986 2625.0,470.0 C 2693.34,420.568 2756.01,363.522 2825.0,315.0 C 2856.25,293.022 2890.54,275.492 2925.0,259.0 C 2937.47,253.031 2951.28,249.715 2965.0,248.0 C 2978.23,246.346 2991.95,246.228 3005.0,249.0 C 3019.05,251.985 3032.78,257.464 3045.0,265.0 C 3057.47,272.684 3067.0,284.333 3078.0,294.0 C 3138.67,334.333 3199.33,374.667 3260.0,415.0 C 3257.0,455.0 3256.25,495.233 3251.0,535.0 C 3242.24,601.334 3229.0,667.0 3218.0,733.0 C 3210.33,695.333 3202.67,657.667 3195.0,620.0 C 3153.33,771.333 3114.0,923.329 3070.0,1074.0 C 3050.32,1141.39 3027.87,1207.98 3004.0,1274.0 C 2996.5,1294.76 2987.2,1314.98 2976.0,1334.0 C 2951.79,1375.11 2925.11,1414.74 2898.0,1454.0 C 2851.43,1521.44 2785.56,1577.96 2755.0,1654.0 C 2711.75,1761.62 2708.24,1881.26 2681.0,1994.0 C 2674.54,2020.74 2663.0,2046.0 2654.0,2072.0" /></clipPath></defs><path d="M 2649.72,2073.35 C 2622.3,1986.71 2594.9,1900.06 2567.44,1813.44 A 4.78196612284107 4.78196612284107 0 1 1 2576.56 1810.56 C 2603.76,1897.27 2631.04,1983.95 2658.28,2070.65 A 4.487861406059847 4.487861406059847 0 1 1 2649.72 2073.35 Z" fill="black" stroke-width="0" /><path d="M 2574.37,1816.16 C 2568.27,1818.89 2562,1821.27 2556.06,1824.36 C 2550.15,1827.43 2544.62,1831.19 2538.9,1834.61 C 2533.18,1838.03 2527.45,1841.45 2521.72,1844.87 C 2498.79,1858.55 2475.87,1872.31 2452.25,1884.8 C 2416.41,1903.75 2379.11,1920.11 2340.84,1933.54 C 2318.97,1941.21 2296.72,1947.8 2274.39,1953.99 C 2242.2,1962.9 2209.73,1970.78 2177.09,1977.83 C 2142.66,1985.26 2108.07,1991.97 2073.06,1996.07 C 2046.17,1999.22 2019.17,2000.8 1992.14,2001.82 C 1972.12,2002.58 1952.09,2003.05 1932.06,2003.18 C 1891.98,2003.44 1851.81,2002.69 1811.83,1999.71 C 1785.16,1997.73 1758.58,1994.55 1732.13,1990.61 C 1698.73,1985.64 1665.49,1979.43 1632.55,1971.98 C 1605.21,1965.8 1578.02,1958.85 1551.18,1950.77 C 1525.56,1943.04 1500.09,1934.91 1475.09,1925.32 C 1453.85,1917.18 1433.17,1907.87 1412.72,1897.93 C 1388.7,1886.26 1365.01,1873.84 1341.65,1860.89 C 1324.13,1851.18 1306.79,1841.14 1289.6,1830.84 C 1277.5,1823.58 1265.39,1816.3 1253.7,1808.39 C 1231.5,1793.35 1210.9,1776.28 1190.37,1759.09 C 1144.26,1720.48 1101.9,1677.41 1062.57,1631.97 C 1040.7,1606.7 1019.82,1580.6 999.79,1553.85 C 972.324,1517.17 946.502,1479.26 920.922,1441.25 C 879.967,1380.39 840.436,1318.6 800.404,1257.13 C 782.219,1229.21 763.876,1201.39 745.351,1173.7 C 720.133,1135.99 694.371,1098.43 664.302,1064.37 C 637.882,1034.44 611.119,1004.79 582.817,976.616 C 568.355,962.218 553.803,947.529 537.42,935.257 C 532.157,931.315 526.683,927.652 521.135,924.122 C 515.554,920.57 509.791,917.31 504.05,914.022 C 489.295,905.574 473.82,898.027 456.74,895.781 C 440.987,893.71 434.431,895.731 418.801,898.585 C 417.833,898.762 416.817,898.89 415.952,899.36 C 410.61,902.262 405.358,905.342 400.262,908.657 C 399.173,909.365 398.349,910.419 397.475,911.38 C 393.058,916.239 388.529,921.008 384.396,926.11 C 374.282,938.597 365.302,952.345 358.786,967.077 C 356.153,973.032 354.216,979.272 352.053,985.413 C 351.664,986.517 351.427,987.668 351.136,988.802 C 349.485,995.25 347.833,1001.7 346.227,1008.16 C 343.013,1021.08 339.89,1034.02 336.977,1047.01 C 329.484,1080.43 323.377,1114.14 319.432,1148.17 C 315.597,1181.24 313.61,1214.47 311.449,1247.69 C 310.267,1265.87 309.005,1284.04 307.621,1302.21 A 2.629399361070873 2.629399361070873 0 1 1 302.379 1301.79 C 306.294,1250.39 307.882,1198.76 313.622,1147.51 C 317.458,1113.25 323.55,1079.33 330.925,1045.67 C 333.784,1032.61 336.843,1019.6 340.017,1006.62 C 341.603,1000.14 343.228,993.669 344.864,987.198 C 345.165,986.006 345.423,984.798 345.827,983.636 C 348.068,977.201 350.067,970.662 352.797,964.419 C 359.471,949.155 368.763,934.846 379.145,921.871 C 383.37,916.591 387.997,911.643 392.525,906.62 C 393.492,905.548 394.413,904.379 395.625,903.592 C 401.616,899.701 407.786,896.08 414.048,892.64 C 414.954,892.142 416.025,892.015 417.043,891.826 C 434.242,888.633 440.314,886.477 457.665,888.7 C 475.666,891.007 492.021,898.815 507.568,907.718 C 513.421,911.07 519.292,914.399 524.985,918.015 C 530.692,921.64 536.34,925.376 541.75,929.431 C 553.063,937.909 563.375,947.674 573.606,957.43 C 578.445,962.045 583.242,966.704 587.99,971.413 C 606.974,990.239 625.241,1009.79 643.131,1029.66 C 656.688,1044.71 670.268,1059.82 683.128,1075.48 C 691.629,1085.83 699.835,1096.43 707.767,1107.23 C 718.852,1122.32 729.324,1137.82 739.737,1153.38 C 762.007,1186.63 783.959,1220.09 805.703,1253.69 C 834.679,1298.47 863.41,1343.41 892.622,1388.03 C 907.218,1410.33 921.844,1432.61 936.799,1454.67 C 962.458,1492.51 988.414,1530.21 1016.25,1566.49 C 1064.85,1629.84 1118.61,1689.18 1178.61,1741.93 C 1193.62,1755.13 1208.97,1767.97 1224.71,1780.29 C 1235.16,1788.46 1245.77,1796.46 1256.75,1803.91 C 1268.34,1811.78 1280.37,1818.99 1292.4,1826.16 C 1309.56,1836.38 1326.87,1846.35 1344.35,1856.02 C 1361.83,1865.68 1379.46,1875.04 1397.31,1884 C 1411.53,1891.13 1425.79,1898.34 1440.36,1904.73 C 1452.52,1910.07 1464.75,1915.22 1477.14,1919.97 C 1495.78,1927.12 1514.69,1933.47 1533.73,1939.42 C 1554.02,1945.75 1574.46,1951.57 1595.04,1956.89 C 1634.05,1966.97 1673.53,1975.13 1713.29,1981.62 C 1739.55,1985.91 1765.93,1989.5 1792.42,1992.03 C 1832.16,1995.82 1872.13,1997.07 1912.04,1997.25 C 1938.67,1997.37 1965.3,1996.84 1991.91,1995.86 C 2018.8,1994.87 2045.63,1993.22 2072.37,1990.14 C 2113.8,1985.38 2154.7,1976.9 2195.35,1967.75 C 2227.82,1960.44 2260.07,1952.22 2292.03,1942.94 C 2314.18,1936.51 2336.1,1929.49 2357.68,1921.31 C 2376.32,1914.25 2394.69,1906.46 2412.78,1898.07 C 2419.19,1895.09 2425.62,1892.13 2431.91,1888.92 C 2437.82,1885.89 2443.76,1882.93 2449.63,1879.84 C 2467.27,1870.53 2484.56,1860.56 2501.74,1850.42 C 2513.23,1843.65 2524.62,1836.71 2536.08,1829.89 C 2541.82,1826.48 2547.76,1823.39 2553.34,1819.72 C 2558.95,1816.03 2564.2,1811.8 2569.63,1807.84 A 4.787744771810645 4.787744771810645 0 1 1 2574.37 1816.16 Z" fill="black" stroke-width="0" /><path d="M 302.372,1301.9 C 304.493,1241.93 305.492,1181.92 308.19,1121.97 C 310.593,1068.58 314.441,1015.25 320.32,962.125 C 324.02,928.698 328.386,895.304 334.302,862.191 C 336.653,849.026 339.237,835.899 342.15,822.848 C 343.757,815.65 345.233,808.4 347.26,801.308 C 349.107,794.849 350.829,788.352 352.865,781.949 C 356.919,769.194 361.79,756.711 366.521,744.191 C 370.18,734.507 373.848,724.819 377.351,715.076 A 2.805526153861333 2.805526153861333 0 1 1 382.649 716.924 C 379.127,726.722 375.47,736.465 371.799,746.209 C 367.116,758.64 362.268,771.025 358.243,783.684 C 356.244,789.97 354.552,796.35 352.74,802.692 C 350.727,809.732 349.261,816.93 347.666,824.076 C 344.77,837.049 342.202,850.097 339.865,863.182 C 333.971,896.171 329.577,929.441 325.859,962.741 C 319.942,1015.73 316.049,1068.96 313.6,1122.22 C 310.844,1182.15 309.63,1242.14 307.628,1302.1 A 2.6299018993110574 2.6299018993110574 0 1 1 302.372 1301.9 Z" fill="black" stroke-width="0" /><path d="M 377.787,714.275 C 381.662,708.905 385.589,703.571 389.413,698.164 C 393.291,692.68 396.902,687.007 400.892,681.603 C 404.897,676.179 408.949,670.772 413.385,665.694 C 416.731,661.865 420.099,657.944 424.194,654.93 C 429.747,650.842 435.737,647.231 442.094,644.561 C 448.428,641.901 455.317,640.822 461.959,639.068 C 463.124,638.76 464.308,638.487 465.508,638.377 C 472.317,637.754 479.13,636.698 485.965,636.871 C 492.787,637.044 499.509,638.555 506.279,639.41 C 513.041,640.263 519.567,642.481 526.111,644.383 C 532.594,646.267 539.049,648.294 545.341,650.741 C 551.63,653.185 557.681,656.201 563.804,659.035 C 564.967,659.574 566.075,660.222 567.189,660.854 C 573.001,664.154 578.823,667.438 584.582,670.83 C 590.337,674.22 596.042,677.693 601.727,681.198 C 635.802,702.206 668.745,724.964 702.53,746.423 C 722.766,759.276 743.364,771.533 764.388,783.053 C 781.884,792.64 799.632,801.835 818.125,809.373 C 833.534,815.655 849.294,820.96 865.68,824.058 C 878.698,826.52 892.017,827.66 905.265,827.625 C 911.875,827.608 918.471,827.001 925.073,826.67 C 931.878,826.329 938.619,824.777 945.21,823.056 C 951.619,821.382 957.889,819.154 964.012,816.63 C 971.415,813.577 978.593,810.195 985.373,805.934 C 990.981,802.408 996.685,799.021 1002.11,795.223 C 1012.99,787.615 1023.22,779.009 1032.67,769.692 C 1041.49,761 1049.16,751.611 1056.86,741.916 C 1061,736.706 1065.05,731.423 1069,726.063 C 1080.84,709.978 1091.82,693.241 1101.89,675.991 C 1134.41,620.267 1157.56,559.57 1178.95,498.893 C 1203.33,429.724 1224.89,359.623 1247.53,289.876 C 1255.76,264.508 1264.1,239.178 1272.76,213.951 C 1280.68,190.891 1288.21,167.586 1299.32,145.801 C 1306.34,132.028 1313.93,118.262 1324.01,106.541 C 1328.52,101.3 1333.46,96.3198 1339.08,92.3038 C 1342.89,89.5844 1347.43,87.9218 1351.92,86.614 C 1358.32,84.7519 1365,84.0342 1371.56,82.8539 C 1378.11,81.6742 1384.68,80.5714 1391.26,79.5343 C 1430.78,73.3041 1470.64,69.5713 1510.46,65.8871 C 1537.03,63.4284 1563.62,61.065 1590.14,58.0863 C 1596.77,57.3423 1603.39,56.5745 1610,55.742 C 1616.61,54.9099 1623.21,53.9817 1629.82,53.0926 C 1630.54,52.9959 1631.27,52.9588 1631.97,52.7846 C 1638.43,51.1837 1644.92,49.6749 1651.31,47.7701 C 1657.75,45.8463 1663.9,42.9838 1670.42,41.3065 C 1676.8,39.6612 1683.39,38.8813 1689.9,37.8299 C 1690.59,37.7181 1691.3,37.7639 1692,37.8216 C 1698.64,38.3694 1705.35,38.5019 1711.91,39.6457 C 1718.53,40.798 1725.09,42.4202 1731.41,44.6874 C 1737.67,46.9324 1743.51,50.2136 1749.48,53.1252 C 1750.42,53.5823 1751.28,54.1869 1752.14,54.7846 C 1757.59,58.5919 1763.13,62.2877 1768.4,66.3376 C 1778.98,74.4619 1788.91,83.4478 1798.37,92.8492 C 1813.96,108.342 1828.09,125.206 1841.95,142.242 C 1862.98,168.103 1883.12,194.671 1903.03,221.402 C 1926.93,253.491 1950.41,285.887 1974.66,317.713 C 1986.78,333.621 1999.15,349.32 2011.66,364.919 C 2024.69,381.147 2038.2,397.039 2052.14,412.484 C 2068.93,431.081 2086.43,449.162 2105.18,465.794 C 2120.15,479.067 2135.71,491.577 2151.88,503.35 C 2162.66,511.2 2173.7,518.708 2184.88,525.971 C 2197.14,533.927 2209.51,541.858 2222.75,548.057 C 2234.82,553.713 2247.55,557.862 2260.19,562.112 C 2268.14,564.787 2276.17,567.272 2284.27,569.461 C 2290.7,571.201 2297.16,572.93 2303.72,574.118 C 2310.24,575.299 2316.86,575.782 2323.44,576.556 C 2330.56,577.394 2337.82,577.034 2344.99,577.062 C 2351.66,577.088 2358.34,577.029 2365.01,576.783 C 2378.32,576.293 2391.64,575.268 2404.8,573.279 C 2411.54,572.261 2418.3,571.233 2424.89,569.52 C 2431.32,567.85 2437.8,566.359 2444.17,564.492 C 2450.55,562.622 2456.87,560.533 2463.14,558.313 C 2482.04,551.621 2500.19,543.303 2518.25,534.658 C 2532.42,527.878 2546.23,520.27 2559.75,512.289 C 2582.07,499.112 2603.59,484.608 2624.55,469.379 C 2683.91,426.253 2738.89,377.528 2797.65,333.622 C 2811.82,323.033 2826.13,312.543 2841.03,303.001 C 2857.92,292.192 2875.49,282.535 2893.32,273.383 C 2899.26,270.333 2905.25,267.371 2911.23,264.412 C 2915.64,262.234 2919.97,259.864 2924.51,257.972 C 2930.71,255.389 2936.95,252.827 2943.42,251.004 C 2955.32,247.649 2972.63,245.366 2984.99,245.66 C 2991.71,245.82 2998.36,247.084 3005.05,247.806 C 3011.8,248.535 3018.24,251.137 3024.58,253.573 C 3030.86,255.987 3036.76,259.299 3042.79,262.281 C 3043.78,262.77 3044.75,263.311 3045.63,263.98 C 3050.97,268.055 3056.35,272.088 3061.41,276.5 C 3067.46,281.765 3072.91,287.652 3078.86,293.026 A 1.2993367538864582 1.2993367538864582 0 1 1 3077.14 294.974 C 3071.18,289.58 3065.81,283.565 3059.77,278.246 C 3054.85,273.912 3049.58,269.999 3044.37,266.02 C 3043.51,265.363 3042.56,264.833 3041.59,264.353 C 3035.67,261.427 3029.88,258.184 3023.72,255.809 C 3017.5,253.413 3011.19,250.827 3004.56,250.113 C 2998.03,249.408 2991.52,248.177 2984.95,248.017 C 2972.22,247.706 2956.29,249.8 2944.03,253.24 C 2937.69,255.017 2931.57,257.508 2925.49,260.028 C 2920.95,261.908 2916.63,264.258 2912.22,266.424 C 2906.24,269.363 2900.25,272.304 2894.32,275.342 C 2876.55,284.442 2859.01,294.055 2842.17,304.79 C 2827.28,314.28 2812.99,324.678 2798.85,335.227 C 2735.31,382.613 2676.12,435.711 2610.92,480.9 C 2581.54,501.262 2551.1,520.348 2518.79,535.753 C 2500.68,544.39 2482.44,552.647 2463.49,559.314 C 2457.2,561.528 2450.86,563.611 2444.46,565.474 C 2438.06,567.335 2431.56,568.817 2425.11,570.48 C 2418.49,572.187 2411.7,573.173 2404.94,574.175 C 2391.73,576.131 2378.38,577.145 2365.04,577.61 C 2358.36,577.843 2351.67,577.89 2344.98,577.85 C 2337.81,577.808 2330.53,578.156 2323.4,577.304 C 2316.79,576.514 2310.14,576.008 2303.59,574.816 C 2297.01,573.618 2290.53,571.896 2284.08,570.145 C 2275.96,567.943 2267.95,565.444 2259.98,562.75 C 2247.33,558.472 2234.57,554.309 2222.48,548.63 C 2209.23,542.405 2196.83,534.452 2184.56,526.467 C 2173.37,519.188 2162.35,511.653 2151.56,503.798 C 2135.37,492.013 2119.8,479.492 2104.82,466.206 C 2086.05,449.56 2068.53,431.466 2051.73,412.854 C 2037.78,397.402 2024.26,381.502 2011.24,365.267 C 1998.71,349.664 1986.35,333.961 1974.22,318.048 C 1949.97,286.221 1926.45,253.846 1902.55,221.756 C 1882.65,195.031 1862.51,168.47 1841.49,142.615 C 1827.65,125.597 1813.56,108.718 1797.98,93.2407 C 1788.54,83.8551 1778.64,74.8653 1768.09,66.7443 C 1762.83,62.6977 1757.3,59.0149 1751.86,55.2154 C 1751.01,54.6211 1750.15,54.0216 1749.22,53.5655 C 1743.28,50.6584 1737.48,47.3802 1731.25,45.1345 C 1724.96,42.8642 1718.42,41.2416 1711.84,40.0746 C 1705.3,38.9155 1698.62,38.7482 1692,38.1784 C 1691.3,38.1187 1690.59,38.0756 1689.91,38.1867 C 1683.43,39.2338 1676.87,40.0034 1670.52,41.6485 C 1664.01,43.3324 1657.87,46.2108 1651.43,48.1451 C 1645.03,50.069 1638.52,51.5971 1632.03,53.2154 C 1631.33,53.3909 1630.6,53.4268 1629.88,53.5235 C 1623.27,54.413 1616.67,55.335 1610.06,56.1739 C 1603.44,57.0131 1596.82,57.8006 1590.19,58.5578 C 1563.67,61.5889 1537.08,63.9527 1510.51,66.4377 C 1470.7,70.1598 1430.88,74.0072 1391.37,80.2742 C 1384.8,81.3169 1378.24,82.4059 1371.69,83.5911 C 1365.14,84.7767 1358.46,85.4965 1352.08,87.386 C 1347.7,88.6823 1343.32,90.4084 1339.62,93.0834 C 1334.09,97.0814 1329.17,101.962 1324.73,107.147 C 1319.74,112.984 1315.52,119.467 1311.45,125.985 C 1307.36,132.536 1303.79,139.401 1300.3,146.292 C 1289.31,168.056 1281.82,191.354 1273.95,214.359 C 1265.32,239.585 1257.02,264.924 1248.84,290.299 C 1226.34,360.099 1204.78,430.228 1180.47,499.428 C 1168.03,534.812 1154.97,570.02 1139.88,604.368 C 1128.99,629.142 1117.12,653.531 1103.52,676.94 C 1093.45,694.28 1082.47,711.075 1070.61,727.249 C 1062.72,738.016 1054.55,748.599 1045.82,758.701 C 1042.1,763.011 1038.3,767.269 1034.25,771.276 C 1024.72,780.705 1014.41,789.403 1003.47,797.151 C 992.157,805.164 977.801,813.663 965.016,819.02 C 958.797,821.625 952.428,823.932 945.914,825.673 C 932.734,829.194 918.924,830.455 905.283,830.57 C 891.842,830.684 878.323,829.606 865.102,827.186 C 848.472,824.142 832.496,818.812 816.839,812.538 C 798.184,805.062 780.237,795.922 762.563,786.395 C 741.376,774.974 720.699,762.724 700.307,749.94 C 672.052,732.226 644.431,713.526 616.227,695.734 C 604.977,688.638 593.632,681.688 582.138,674.993 C 576.398,671.65 570.599,668.407 564.811,665.146 C 563.732,664.537 562.664,663.901 561.537,663.386 C 555.576,660.663 549.676,657.779 543.556,655.436 C 537.388,653.075 531.069,651.108 524.72,649.291 C 518.357,647.47 511.87,646.115 505.443,644.53 C 499.044,642.951 492.406,642.272 485.817,642.128 C 479.358,641.986 472.924,643.01 466.492,643.623 C 465.318,643.735 464.158,643.995 463.019,644.299 C 456.674,645.992 450.103,647.072 444.047,649.612 C 438.27,652.036 432.826,655.323 427.806,659.07 C 423.923,661.969 420.739,665.725 417.562,669.383 C 413.265,674.332 409.306,679.571 405.421,684.849 C 401.462,690.229 397.891,695.884 394.039,701.341 C 390.154,706.844 386.155,712.264 382.213,717.725 A 2.805885599948825 2.805885599948825 0 1 1 377.787 714.275 Z" fill="black" stroke-width="0" /><path d="M 3078.72,292.921 C 3139.5,333.074 3200.26,373.277 3260.97,413.545 A 1.7486923685999105 1.7486923685999105 0 1 1 3259.03 416.455 C 3198.41,376.059 3137.83,335.59 3077.28,295.079 A 1.2971665274742978 1.2971665274742978 0 1 1 3078.72 292.921 Z" fill="black" stroke-width="0" /><path d="M 3261.74,415.131 C 3261.26,421.772 3260.73,428.411 3260.29,435.055 C 3258.94,455.022 3258,475.016 3256.43,494.968 C 3255.38,508.277 3253.91,521.552 3252.35,534.812 C 3251.56,541.558 3250.49,548.268 3249.5,554.987 C 3247.56,568.184 3245.48,581.36 3243.29,594.517 C 3236.72,633.982 3229.32,673.304 3222.4,712.707 C 3221.21,719.517 3219.95,726.316 3218.81,733.136 A 0.8213379328874947 0.8213379328874947 0 1 1 3217.19 732.864 C 3218.32,726.041 3219.39,719.206 3220.55,712.386 C 3227.23,672.947 3234.59,633.628 3240.96,594.135 C 3243.08,580.983 3245.14,567.818 3247.01,554.627 C 3247.96,547.914 3248.99,541.208 3249.74,534.469 C 3251.21,521.251 3252.63,508.021 3253.61,494.757 C 3255.57,468.159 3256.63,441.49 3258.26,414.869 A 1.7449243536609926 1.7449243536609926 0 1 1 3261.74 415.131 Z" fill="black" stroke-width="0" /><path d="M 3217.19,733.165 C 3209.52,695.498 3201.76,657.851 3194.1,620.184 A 0.9186163508234285 0.9186163508234285 0 1 1 3195.9 619.816 C 3203.57,657.482 3211.14,695.169 3218.81,732.835 A 0.8266347440072306 0.8266347440072306 0 1 1 3217.19 733.165 Z" fill="black" stroke-width="0" /><path d="M 3195.89,620.245 C 3194.52,626.78 3193.33,633.359 3191.77,639.851 C 3190.2,646.331 3188.26,652.713 3186.51,659.146 C 3184.76,665.578 3183.02,672.013 3181.27,678.446 C 3174.29,704.181 3167.35,729.928 3160.41,755.676 C 3139.6,832.93 3118.86,910.207 3097.26,987.243 C 3085.47,1029.27 3073.66,1071.3 3060.84,1113.03 C 3051.05,1144.92 3040.67,1176.63 3029.92,1208.21 C 3023.47,1227.16 3016.82,1246.03 3010.1,1264.88 C 3004.39,1280.91 2998.38,1296.73 2990.96,1312.07 C 2983.95,1326.57 2976.63,1338.94 2968.26,1352.7 C 2957.84,1369.81 2946.96,1386.65 2935.91,1403.35 C 2928.54,1414.49 2921.05,1425.54 2913.49,1436.54 C 2905.34,1448.43 2897.21,1460.34 2888.59,1471.89 C 2880.55,1482.66 2872.11,1493.12 2863.57,1503.49 C 2838.13,1534.42 2811.14,1564.2 2788.74,1597.49 C 2785.07,1602.94 2781.51,1608.45 2778.12,1614.07 C 2774.75,1619.67 2771.17,1625.18 2768.47,1631.14 C 2765.76,1637.1 2764.21,1643.53 2761.95,1649.68 C 2761.19,1651.75 2760.2,1653.72 2759.4,1655.77 C 2757.02,1661.9 2754.61,1668.03 2752.39,1674.23 C 2743.5,1699.04 2736.53,1724.5 2730.66,1750.18 C 2714.29,1821.85 2706.86,1895.17 2691.71,1967.07 C 2688.38,1982.86 2684.72,1999.22 2679.83,2014.59 C 2673.49,2034.52 2665.14,2053.74 2658.25,2073.47 A 4.497043473216532 4.497043473216532 0 1 1 2649.75 2070.53 C 2656.63,2050.86 2664.9,2031.67 2671.21,2011.8 C 2674.05,2002.87 2676.51,1993.79 2678.55,1984.65 C 2684.37,1958.66 2689.28,1932.53 2693.68,1906.27 C 2703.64,1846.91 2711.39,1787.05 2726.17,1728.61 C 2731.09,1709.18 2736.74,1689.93 2743.48,1671.05 C 2745.74,1664.73 2748.17,1658.48 2750.6,1652.23 C 2751.42,1650.1 2752.12,1647.9 2753.23,1645.91 C 2756.52,1640.04 2760.37,1634.5 2763.77,1628.69 C 2767.12,1622.95 2770.08,1616.98 2773.48,1611.27 C 2776.89,1605.56 2780.51,1599.97 2784.21,1594.44 C 2806.66,1561 2833.7,1530.96 2859.21,1499.9 C 2867.68,1489.58 2876.08,1479.2 2884.06,1468.51 C 2892.64,1457.02 2900.68,1445.15 2908.73,1433.29 C 2916.21,1422.27 2923.66,1411.22 2931,1400.1 C 2942,1383.44 2952.75,1366.63 2963.17,1349.59 C 2971.42,1336.1 2978.9,1323.78 2985.92,1309.6 C 2996.34,1288.55 3003.98,1266.36 3011.83,1244.27 C 3025.2,1206.59 3038.11,1168.76 3050.18,1130.65 C 3063.36,1089.08 3075.4,1047.16 3087.32,1005.22 C 3107.36,934.687 3126.55,863.915 3145.69,793.136 C 3154.39,760.957 3163.09,728.775 3171.83,696.606 C 3175.32,683.738 3178.82,670.87 3182.34,658.009 C 3184.11,651.579 3185.68,645.093 3187.64,638.72 C 3189.6,632.336 3191.95,626.077 3194.11,619.755 A 0.9231061694083599 0.9231061694083599 0 1 1 3195.89 620.245 Z" fill="black" stroke-width="0" /></svg>