<?xml version="1.0" encoding="UTF-8" standalone="no"?>
<!-- Created with matplotlib (http://matplotlib.org/) -->

<svg
   xmlns:dc="http://purl.org/dc/elements/1.1/"
   xmlns:cc="http://creativecommons.org/ns#"
   xmlns:rdf="http://www.w3.org/1999/02/22-rdf-syntax-ns#"
   xmlns:svg="http://www.w3.org/2000/svg"
   xmlns="http://www.w3.org/2000/svg"
   xmlns:sodipodi="http://sodipodi.sourceforge.net/DTD/sodipodi-0.dtd"
   xmlns:inkscape="http://www.inkscape.org/namespaces/inkscape"
   height="245.73218pt"
   version="1.1"
   viewBox="0 0 357.12 245.73217"
   width="357.12pt"
   id="svg57"
   sodipodi:docname="sil_split_paths.svg"
   inkscape:version="0.92.2 2405546, 2018-03-11">
  <metadata
     id="metadata61">
    <rdf:RDF>
      <cc:Work
         rdf:about="">
        <dc:format>image/svg+xml</dc:format>
        <dc:type
           rdf:resource="http://purl.org/dc/dcmitype/StillImage" />
      </cc:Work>
    </rdf:RDF>
  </metadata>
  <sodipodi:namedview
     pagecolor="#ffffff"
     bordercolor="#666666"
     borderopacity="1"
     objecttolerance="10"
     gridtolerance="10"
     guidetolerance="10"
     inkscape:pageopacity="0"
     inkscape:pageshadow="2"
     inkscape:window-width="3440"
     inkscape:window-height="1376"
     id="namedview59"
     showgrid="false"
     inkscape:zoom="2.4107191"
     inkscape:cx="231.22962"
     inkscape:cy="166.12543"
     inkscape:window-x="0"
     inkscape:window-y="27"
     inkscape:window-maximized="1"
     inkscape:current-layer="svg57" />
  <defs
     id="defs4"
     style="stroke-linecap:butt;stroke-linejoin:round">
    <style
       type="text/css"
       id="style2">
*{stroke-linecap:butt;stroke-linejoin:round;}
  </style>
  </defs>
  <g
     id="patch_2"
     style="stroke-linecap:butt;stroke-linejoin:round"
     transform="translate(-57.6,-51.661913)">
    <path
       d="M 57.6,297.39409 H 414.72 V 51.661913 H 57.6 Z"
       style="fill:#ffffff;stroke-linecap:butt;stroke-linejoin:round"
       id="path9"
       inkscape:connector-curvature="0" />
  </g>
  <g
     id="matplotlib.axis_1"
     style="stroke-linecap:butt;stroke-linejoin:round"
     transform="translate(-57.6,-51.661913)" />
  <g
     id="matplotlib.axis_2"
     style="stroke-linecap:butt;stroke-linejoin:round"
     transform="translate(-57.6,-51.661913)" />
  <g
     id="line2d_1"
     style="stroke-linecap:butt;stroke-linejoin:round"
     transform="translate(-57.6,-51.661913)">
    <path
       clip-path="url(#p6626826a73)"
       d="m 331.82042,286.22444 -0.55024,-0.66007 -0.10983,-0.32948 -0.10983,-0.21966 -0.10983,-0.54914 -0.10982,-0.21965 -0.10983,-0.54915 -0.10983,-0.21965 -0.10983,-0.54914 -0.10983,-0.21966 -0.10983,-0.54914 -0.10982,-0.21966 -0.10983,-0.65897 -0.10983,-0.21965 -0.10983,-0.54915 -0.10983,-0.21965 -0.10983,-0.54914 -0.10982,-0.21966 -0.10983,-0.54914 -0.10983,-0.21966 -0.10983,-0.54914 -0.10983,-0.21966 -0.10983,-0.65897 -0.10982,-0.21965 -0.10983,-0.54914 -0.10983,-0.21966 -0.10983,-0.54914 -0.10983,-0.21966 -0.10982,-0.54914 -0.10983,-0.21966 -0.10983,-0.54914 -0.10983,-0.21965 -0.10983,-0.43932 -0.10983,-0.21965 -0.10982,-0.54914 -0.10983,-0.21966 -0.10983,-0.54914 -0.10983,-0.21966 -0.10983,-0.54914 -0.10983,-0.21966 -0.10982,-0.54914 -0.10983,-0.21965 -0.10983,-0.43932 -0.10983,-0.21965 -0.10983,-0.54915 -0.10983,-0.21965 -0.10982,-0.54914 -0.10983,-0.21966 -0.10983,-0.43931 -0.10983,-0.21966 -0.10983,-0.54914 -0.10982,-0.21966 -0.10983,-0.43931 -0.10983,-0.21966 -0.10983,-0.54914 -0.10983,-0.21965 -0.10983,-0.43932 -0.10982,-0.21965 -0.10983,-0.43932 -0.10983,-0.21965 -0.10983,-0.54914 -0.10983,-0.21966 -0.10983,-0.43931 -0.10982,-0.21966 -0.10983,-0.43931 -0.10983,-0.21966 -0.10983,-0.43931 -0.10983,-0.21966 -0.10983,-0.43931 -0.10982,-0.21966 -0.10983,-0.43931 -0.10983,-0.21966 -0.10983,-0.43931 -0.10983,-0.21966 -0.10982,-0.43931 -0.10983,-0.21966 -0.10983,-0.43931 -0.10983,-0.21966 -0.10873,-0.21856 v 0"
       style="fill:none;stroke:#1f77b4;stroke-width:2;stroke-linecap:square;stroke-linejoin:round"
       id="path14"
       inkscape:connector-curvature="0" />
  </g>
  <g
     id="line2d_2"
     style="stroke-linecap:butt;stroke-linejoin:round"
     transform="translate(-57.6,-51.661913)">
    <path
       clip-path="url(#p6626826a73)"
       d="m 322.8145,257.66909 -0.32948,0.10983 -0.43932,0.32949 -0.21965,0.10983 -0.54915,0.43931 -0.21965,0.10983 -0.43932,0.32948 -0.32948,0.10983 -0.54914,0.43931 -0.21966,0.10983 -0.43931,0.32949 -0.21966,0.10982 -0.32948,0.21966 -0.21966,0.10983 -0.43931,0.32948 -0.32949,0.10983 -0.43931,0.32949 -0.21966,0.10982 -0.32948,0.21966 -0.21966,0.10983 -0.32948,0.21966 -0.21966,0.10982 -0.32948,0.21966 -0.32949,0.10983 -0.43931,0.32948 -0.32949,0.10983 -0.43931,0.32949 -0.32948,0.10983 -0.43932,0.32948 -0.32948,0.10983 -0.32949,0.21965 -0.32948,0.10983 -0.32949,0.21966 -0.21965,0.10983 -0.32949,0.21965 -0.32948,0.10983 -0.32949,0.21966 -0.32948,0.10983 -0.32949,0.21965 -0.32948,0.10983 -0.32949,0.21966 -0.32948,0.10983 -0.32949,0.21965 -0.32948,0.10983 -0.32949,0.21966 -0.43931,0.10983 -0.32948,0.21965 -0.32949,0.10983 -0.32948,0.21966 -0.32949,0.10983 -0.21965,0.10982 -0.32949,0.10983 -0.32948,0.21966 -0.43932,0.10983 -0.32948,0.21966 -0.32949,0.10982 -0.21965,0.10983 -0.32949,0.10983 -0.32948,0.21966 -0.43932,0.10982 -0.21965,0.10983 -0.32949,0.10983 -0.32948,0.21966 -0.43932,0.10982 -0.21965,0.10983 -0.32949,0.10983 -0.21965,0.10983 -0.32949,0.10983 -0.21965,0.10983 -0.32949,0.10982 -0.21966,0.10983 -0.43931,0.10983 -0.32948,0.21966 -0.54914,0.10983 -0.32949,0.21965 -0.54914,0.10983 -0.21966,0.10983 -0.32948,0.10983 -0.21966,0.10983 -0.43931,0.10982 -0.21966,0.10983 -0.43931,0.10983 -0.21966,0.10983 -0.43931,0.10983 -0.21966,0.10983 -0.43931,0.10982 -0.21966,0.10983 -0.43931,0.10983 -0.21966,0.10983 -0.43931,0.10983 -0.21966,0.10982 -0.43931,0.10983 -0.21966,0.10983 -0.54914,0.10983 -0.21965,0.10983 -0.54914,0.10983 -0.21966,0.10983 -0.43931,0.10982 -0.21966,0.10983 -0.54914,0.10983 -0.21966,0.10983 -0.54914,0.10983 -0.21966,0.10982 -0.65897,0.10983 -0.21965,0.10983 -0.54914,0.10983 -0.21966,0.10983 -0.65897,0.10983 -0.21966,0.10982 -0.65897,0.10983 -0.21965,0.10983 -0.65897,0.10983 -0.21966,0.10983 -0.65897,0.10982 -0.21966,0.10983 -0.76879,0.10983 -0.21966,0.10983 -0.7688,0.10983 -0.21965,0.10983 -0.7688,0.10982 -0.21966,0.10983 -0.87862,0.10983 -0.21966,0.10983 -0.87863,0.10983 -0.21965,0.10983 -0.98846,0.10982 -0.21965,0.10983 -0.98846,0.10983 -0.21966,0.10983 -1.09828,0.10983 -0.21965,0.10983 -1.09829,0.10982 -0.21965,0.10983 -1.31794,0.10983 -0.21966,0.10983 -1.31794,0.10983 -0.21966,0.10982 -1.53759,0.10983 -0.21966,0.10983 -1.75725,0.10983 -0.21966,0.10983 -1.9769,0.10983 -0.21966,0.10982 -2.63588,0.10983 -0.21966,0.10983 -3.73416,0.10983 -0.21965,0.10983 -14.27878,-0.11093 -0.21855,-0.10873 -2.96647,-0.11093 -0.21855,-0.10873 -2.3075,-0.11092 -0.21855,-0.10873 -1.86818,-0.11093 -0.21856,-0.10873 -1.64852,-0.11093 -0.21856,-0.10873 -1.42887,-0.11092 -0.21856,-0.10873 -1.31903,-0.11093 -0.21856,-0.10873 -1.20921,-0.11092 -0.21856,-0.10873 -1.09938,-0.11093 -0.21856,-0.10873 -1.09938,-0.11093 -0.21856,-0.10873 -0.98955,-0.11092 -0.21856,-0.10873 -0.87972,-0.11093 -0.21856,-0.10873 -0.87973,-0.11093 -0.21855,-0.10873 -0.87973,-0.11092 -0.21856,-0.10873 -0.76989,-0.11093 -0.21856,-0.10873 -0.7699,-0.11093 -0.21855,-0.10873 -0.7699,-0.11092 -0.21856,-0.10873 -0.66007,-0.11093 -0.21856,-0.10873 -0.66006,-0.11093 -0.21856,-0.10873 -0.66007,-0.11092 -0.21856,-0.10873 -0.66007,-0.11093 -0.21855,-0.10873 -0.55024,-0.11093 -0.21856,-0.10873 -0.55024,-0.11092 -0.21856,-0.10873 -0.55024,-0.11093 -0.21856,-0.10873 -0.55024,-0.11093 -0.21856,-0.10872 -0.55023,-0.11093 -0.21856,-0.10873 -0.55024,-0.11093 -0.21856,-0.10873 -0.44041,-0.11093 -0.21856,-0.10873 -0.55024,-0.11092 -0.21856,-0.10873 -0.44041,-0.11093 -0.21856,-0.10873 -0.44041,-0.11092 -0.21856,-0.10873 -0.44041,-0.11093 -0.21856,-0.10873 -0.44041,-0.11093 -0.21856,-0.10873 -0.44041,-0.11092 -0.21856,-0.10873 -0.33058,-0.11093 -0.21856,-0.10873 -0.44041,-0.11093 -0.21856,-0.10873 -0.44041,-0.11092 -0.32838,-0.21856 -0.55024,-0.11093 -0.32839,-0.21856 -0.44041,-0.11092 -0.21856,-0.10873 -0.44041,-0.11093 -0.32839,-0.21856 -0.44041,-0.11093 -0.21856,-0.10873 -0.33058,-0.11092 -0.21856,-0.10873 -0.33058,-0.11093 -0.21856,-0.10873 -0.33058,-0.11092 -0.32839,-0.21856 -0.44041,-0.11093 -0.32839,-0.21856 -0.44041,-0.11092 -0.32839,-0.21856 -0.44041,-0.11093 -0.32838,-0.21856 -0.44042,-0.11092 -0.32838,-0.21856 -0.33058,-0.11093 -0.32839,-0.21856 -0.44041,-0.11092 -0.32839,-0.21856 -0.33058,-0.11093 -0.32839,-0.21856 -0.33058,-0.11092 -0.21856,-0.10873 -0.33058,-0.11093 -0.32839,-0.21856 -0.33058,-0.11092 -0.32839,-0.21856 -0.33058,-0.11093 -0.32839,-0.21856 -0.33058,-0.11092 -0.43822,-0.32839 -0.33058,-0.11093 -0.32839,-0.21856 -0.33058,-0.11092 -0.32839,-0.21856 -0.22075,-0.11093 -0.32839,-0.21855 -0.33058,-0.11093 -0.32839,-0.21856 -0.22075,-0.11093 -0.32839,-0.21855 -0.33058,-0.11093 -0.43822,-0.32839 -0.33058,-0.11092 -0.43821,-0.32839 -0.33059,-0.11093 -0.43821,-0.32838 -0.22076,-0.11093 -0.32838,-0.21856 -0.22076,-0.11092 -0.32838,-0.21856 -0.22076,-0.11093 -0.43821,-0.32839 -0.33059,-0.11092 -0.54804,-0.43822 -0.33058,-0.11092 -0.54805,-0.43822 -0.22075,-0.11093 -0.43822,-0.32838 -0.22075,-0.11093 -0.43822,-0.32838 -0.22075,-0.11093 -0.43821,-0.32839 -0.22076,-0.11092 -0.43821,-0.32839 -0.22076,-0.11093 -0.54804,-0.43821 -0.22076,-0.11093 -0.54804,-0.43821 -0.22075,-0.11093 -0.54805,-0.43821 -0.22075,-0.11093 -0.65787,-0.54804 -0.22076,-0.11093 -0.7677,-0.65787 -0.22075,-0.11093 -0.7677,-0.65787 -0.22076,-0.11093 -0.87753,-0.7677 -0.22075,-0.11092 -0.98736,-0.87753 -0.22075,-0.11093 -1.20701,-1.09718 -0.22076,-0.11093 -1.86598,-1.75615 -0.22076,-0.11093 -8.34694,-8.45678 -0.10983,-0.21965 -1.42777,-1.5376 -0.10983,-0.21965 -1.20811,-1.31794 -0.10983,-0.21966 -0.98845,-1.09828 -0.10983,-0.21966 -0.87863,-0.98845 -0.10982,-0.21966 -0.7688,-0.87863 -0.10983,-0.21965 -0.7688,-0.87863 -0.10983,-0.21965 -0.65896,-0.7688 -0.10983,-0.21966 -0.54915,-0.65897 -0.10982,-0.21965 -0.54914,-0.65897 -0.10983,-0.21966 -0.54914,-0.65897 -0.10983,-0.21966 -0.54914,-0.65897 -0.10983,-0.21965 -0.54914,-0.65897 -0.10983,-0.21966 -0.43931,-0.54914 -0.10983,-0.21966 -0.43932,-0.54914 -0.10982,-0.21966 -0.43932,-0.54914 -0.10983,-0.21965 -0.43931,-0.54914 -0.10983,-0.21966 -0.43931,-0.54914 -0.10983,-0.21966 -0.43931,-0.54914 -0.10983,-0.21966 -0.43931,-0.54914 -0.10983,-0.21965 -0.32949,-0.43932 -0.10982,-0.21965 -0.43932,-0.54915 -0.10983,-0.21965 -0.32948,-0.43932 -0.10983,-0.21965 -0.32948,-0.43931 -0.10983,-0.21966 -0.43931,-0.54914 -0.10983,-0.21966 -0.32949,-0.43931 -0.10983,-0.21966 -0.32948,-0.43931 -0.10983,-0.21966 -0.32948,-0.43931 -0.10983,-0.21966 -0.32949,-0.43931 -0.10983,-0.21966 -0.32948,-0.43931 -0.10983,-0.21966 -0.32948,-0.43931 -0.10983,-0.21966 -0.32949,-0.43931 -0.10982,-0.21966 -0.32949,-0.43931 -0.10983,-0.21966 -0.32948,-0.43931 -0.10983,-0.32948 -0.43931,-0.54915 -0.10983,-0.21965 -0.32949,-0.43931 -0.10982,-0.21966 -0.32949,-0.43931 -0.10983,-0.21966 -0.32948,-0.43931 -0.10983,-0.32949 -0.43931,-0.54914 -0.10983,-0.21966 -0.32949,-0.43931 -0.10983,-0.21966 -0.21965,-0.32948 -0.10983,-0.21966 -0.32948,-0.43931 -0.10983,-0.21966 -0.32949,-0.43931 -0.10983,-0.21966 -0.21965,-0.32948 -0.10983,-0.21966 -0.32949,-0.43931 -0.10982,-0.21966 -0.32949,-0.43931 -0.10983,-0.32948 -0.43931,-0.54915 -0.10983,-0.21965 -0.32948,-0.43932 -0.10983,-0.32948 -0.43931,-0.54914 -0.10983,-0.21966 -0.32949,-0.43931 -0.10983,-0.32949 -0.43931,-0.54914 -0.10983,-0.21965 -0.32948,-0.43932 -0.10983,-0.32948 -0.43931,-0.54914 -0.10983,-0.21966 -0.32949,-0.43931 -0.10982,-0.32949 -0.43932,-0.54914 -0.10983,-0.21966 -0.32948,-0.43931 -0.10983,-0.21966 -0.21966,-0.32948 -0.10982,-0.21966 -0.32949,-0.43931 -0.10983,-0.21966 -0.32948,-0.43931 -0.10983,-0.21966 -0.32948,-0.43931 -0.10983,-0.32948 -0.43932,-0.54915 -0.10982,-0.21965 -0.32949,-0.43931 -0.10983,-0.21966 -0.32948,-0.43931 -0.10983,-0.21966 -0.32948,-0.43931 -0.10983,-0.21966 -0.32949,-0.43931 -0.10983,-0.21966 -0.32948,-0.43931 -0.10983,-0.21966 -0.32948,-0.43931 -0.10983,-0.21966 -0.32949,-0.43931 -0.10982,-0.21966 -0.32949,-0.43931 -0.10983,-0.21966 -0.32948,-0.43931 -0.10983,-0.21966 -0.32949,-0.43931 -0.10982,-0.21966 -0.43932,-0.54914 -0.10983,-0.21966 -0.32948,-0.43931 -0.10983,-0.21965 -0.43931,-0.54915 -0.10983,-0.21965 -0.43931,-0.54914 -0.10983,-0.21966 -0.32949,-0.43931 -0.10982,-0.21966 -0.54915,-0.65897 -0.10982,-0.21966 -0.43932,-0.54914 -0.10982,-0.21965 -0.54915,-0.65897 -0.10983,-0.21966 -0.65896,-0.7688 -0.10983,-0.21965 -0.54914,-0.65897 -0.10983,-0.21966 -0.7688,-0.87863 -0.10983,-0.21965 -0.7688,-0.87863 -0.10982,-0.21966 -0.87863,-0.98845 -0.10983,-0.21966 -1.09828,-1.20811 -0.10983,-0.21965 -1.31794,-1.42777 -0.10983,-0.21966 -2.08673,-2.19656 -0.10983,-0.21966 -5.16083,-5.051 -0.22076,-0.11093 -1.31684,-1.20701 -0.22075,-0.11093 -0.87753,-0.7677 -0.220756,-0.11092 -0.657871,-0.54805 -0.220755,-0.11092 -0.548043,-0.43822 -0.220755,-0.11092 -0.548043,-0.43822 -0.220755,-0.11093 -0.438214,-0.32838 -0.330584,-0.11093 -0.438214,-0.32839 -0.220755,-0.11092 -0.328387,-0.21856 -0.330583,-0.11093 -0.438214,-0.32838 -0.330584,-0.11093 -0.218558,-0.10873 -0.330583,-0.11093 -0.328386,-0.21855 -0.440412,-0.11093 -0.328386,-0.21856 -0.55024,-0.11093 -0.218558,-0.10873 -0.440411,-0.11092 -0.218559,-0.10873 -0.660068,-0.11093 -0.218558,-0.10873 -3.953817,0.10983 -0.219657,0.10983 -0.439313,0.10983 -0.329485,0.21965 -0.439313,0.10983 -0.439313,0.32949 -0.219656,0.10982 -0.439313,0.32949 -0.219657,0.10983 -2.305295,2.41512 -0.110927,0.22075 -0.438214,0.54805 -0.110927,0.33058 -0.328387,0.43822 -0.110926,0.33058 -0.328387,0.43821 -0.110926,0.33059 -0.218558,0.32838 -0.110927,0.33059 -0.10873,0.21855 -0.110926,0.33059 -0.218559,0.32838 -0.110926,0.44042 -0.10873,0.21855 -0.110927,0.33059 -0.10873,0.21855 -0.110926,0.44042 -0.218559,0.32838 -0.110926,0.55024 -0.10873,0.21856 -0.110927,0.44041 -0.10873,0.21856 -0.110926,0.55024 -0.10873,0.21856 -0.110927,0.55024 -0.10873,0.21856 -0.110926,0.55024 -0.10873,0.21855 -0.110927,0.66007 -0.10873,0.21856 -0.110926,0.66007 -0.10873,0.21856 -0.110927,0.76989 -0.10873,0.21856 -0.110926,0.7699 -0.10873,0.21855 -0.110927,0.87973 -0.10873,0.21856 -0.110926,0.98955 -0.10873,0.21856 -0.110927,0.98955 -0.10873,0.21856 -0.110926,1.20921 -0.10873,0.21856 -0.110927,1.20921 -0.10873,0.21855 -0.110926,1.42887 -0.10873,0.21856 -0.110927,1.53869 -0.10873,0.21856 -0.110927,1.75835 -0.10873,0.21856 -0.110926,1.97801 -0.10873,0.21855 -0.110927,2.19767 -0.10873,0.21856 -0.110926,2.41732 -0.10873,0.21855 -0.110927,2.96647 -0.10873,0.21855 -0.110926,3.29595 -0.10873,0.21856 -0.0011,1.75835 v 0"
       style="fill:none;stroke:#ff7f0e;stroke-width:2;stroke-linecap:square;stroke-linejoin:round"
       id="path17"
       inkscape:connector-curvature="0" />
  </g>
  <g
     id="line2d_3"
     style="stroke-linecap:butt;stroke-linejoin:round"
     transform="translate(-57.6,-51.661913)">
    <path
       clip-path="url(#p6626826a73)"
       d="m 73.833826,201.65668 -0.0011,-0.11093 0.110927,-6.81045 0.10873,-0.21856 0.110926,-6.15148 0.10873,-0.21856 0.110927,-4.83354 0.10873,-0.21856 0.110926,-3.95491 0.10873,-0.21856 0.110927,-3.40577 0.10873,-0.21856 0.110926,-2.85664 0.10873,-0.21855 0.110927,-2.41732 0.10873,-0.21856 0.110927,-2.19767 0.108729,-0.21855 0.110927,-2.08784 0.10873,-0.21856 0.110927,-1.75835 0.10873,-0.21856 0.110926,-1.64852 0.10873,-0.21856 0.110927,-1.42886 0.10873,-0.21856 0.110926,-1.42887 0.10873,-0.21855 0.110927,-1.20921 0.10873,-0.21856 0.110926,-1.09938 0.10873,-0.21856 0.110927,-1.09938 0.10873,-0.21856 0.110926,-0.98955 0.10873,-0.21856 0.110927,-0.98955 0.10873,-0.21856 0.110926,-0.7699 0.10873,-0.21856 0.110927,-0.87972 0.10873,-0.21856 0.110926,-0.7699 0.10873,-0.21855 0.110927,-0.66007 0.10873,-0.21856 0.110926,-0.66007 0.10873,-0.21856 0.110927,-0.66006 0.10873,-0.21856 0.110926,-0.55024 0.10873,-0.21856 0.110927,-0.55024 0.10873,-0.21856 0.110927,-0.44041 0.10873,-0.21856 0.110926,-0.55024 0.10873,-0.21856 0.110927,-0.44041 0.10873,-0.21855 0.110926,-0.33059 0.10873,-0.21856 0.110927,-0.44041 0.10873,-0.21856 0.110926,-0.33058 0.10873,-0.21856 0.110927,-0.33058 0.10873,-0.21856 0.110926,-0.33058 0.218559,-0.32839 0.110926,-0.44041 0.218558,-0.32839 0.110927,-0.33058 0.218558,-0.32839 v -0.21965 0"
       style="fill:none;stroke:#2ca02c;stroke-width:2;stroke-linecap:square;stroke-linejoin:round"
       id="path20"
       inkscape:connector-curvature="0" />
  </g>
  <g
     id="line2d_4"
     style="stroke-linecap:butt;stroke-linejoin:round"
     transform="translate(-57.6,-51.661913)">
    <path
       clip-path="url(#p6626826a73)"
       d="m 82.069847,137.29622 0.329485,-0.43932 0.110926,-0.33058 0.218559,-0.32838 0.110926,-0.33059 0.328387,-0.43821 0.110926,-0.22076 0.328387,-0.43821 0.110926,-0.22076 0.328387,-0.43821 0.110926,-0.22076 0.657872,-0.7677 0.110926,-0.22075 2.196566,-2.08674 0.219656,-0.10983 0.439313,-0.32948 0.329485,-0.10983 0.439313,-0.32948 0.329485,-0.10983 0.219656,-0.10983 0.329485,-0.10983 0.219657,-0.10983 0.439313,-0.10983 0.219656,-0.10982 0.65897,-0.10983 0.219656,-0.10983 1.317939,-0.10983 0.219657,-0.10983 2.307492,0.11093 0.218558,0.10873 1.099381,0.11093 0.218558,0.10873 0.660068,0.11092 0.218558,0.10873 0.55024,0.11093 0.218558,0.10873 0.440412,0.11093 0.218558,0.10873 0.330583,0.11092 0.218558,0.10873 0.440411,0.11093 0.328388,0.21856 0.44041,0.11092 0.32839,0.21856 0.44041,0.11093 0.32838,0.21856 0.33059,0.11092 0.32838,0.21856 0.33059,0.11093 0.32838,0.21856 0.33059,0.11092 0.32838,0.21856 0.33059,0.11093 0.43821,0.32838 0.33058,0.11093 0.32839,0.21856 0.22076,0.11093 0.32838,0.21855 0.22076,0.11093 0.32838,0.21856 0.33059,0.11093 0.43821,0.32838 0.22076,0.11093 0.43821,0.32838 0.33058,0.11093 0.54805,0.43822 0.33058,0.11092 0.54804,0.43822 0.33059,0.11092 0.54804,0.43822 0.22075,0.11093 0.43822,0.32838 0.22075,0.11093 0.43822,0.32838 0.33058,0.11093 0.54805,0.43822 0.22075,0.11092 0.43821,0.32839 0.22076,0.11093 0.43821,0.32838 0.22076,0.11093 0.43821,0.32839 0.22076,0.11092 0.43821,0.32839 0.22076,0.11092 0.43821,0.32839 0.22076,0.11093 0.43821,0.32838 0.22076,0.11093 0.43821,0.32839 0.33059,0.11092 0.54804,0.43822 0.22075,0.11093 0.43822,0.32838 0.22075,0.11093 0.32839,0.21856 0.22075,0.11092 0.43822,0.32839 0.33058,0.11093 0.54804,0.43821 0.33059,0.11093 0.43821,0.32838 0.22076,0.11093 0.32838,0.21856 0.22076,0.11093 0.32839,0.21855 0.33058,0.11093 0.43821,0.32839 0.22076,0.11092 0.32838,0.21856 0.33059,0.11093 0.32838,0.21856 0.22076,0.11092 0.32839,0.21856 0.33058,0.11093 0.32839,0.21856 0.33058,0.11092 0.32838,0.21856 0.33059,0.11093 0.32838,0.21856 0.33059,0.11092 0.32838,0.21856 0.33059,0.11093 0.21856,0.10873 0.33058,0.11092 0.32838,0.21856 0.44042,0.11093 0.32838,0.21856 0.44041,0.11092 0.21856,0.10873 0.44041,0.11093 0.32839,0.21856 0.55024,0.11092 0.21856,0.10873 0.44041,0.11093 0.21856,0.10873 0.55024,0.11093 0.21855,0.10873 0.55024,0.11092 0.21856,0.10873 0.7699,0.11093 0.21856,0.10873 0.87972,0.11093 0.21856,0.10873 1.42887,0.11092 0.21855,0.10873 4.28331,-0.10982 0.21965,-0.10983 0.98846,-0.10983 0.21965,-0.10983 0.65897,-0.10983 0.21966,-0.10983 0.54914,-0.10982 0.21966,-0.10983 0.43931,-0.10983 0.32948,-0.21966 0.43932,-0.10983 0.21965,-0.10982 0.32949,-0.10983 0.32948,-0.21966 0.32949,-0.10983 0.32948,-0.21965 0.32949,-0.10983 0.32948,-0.21966 0.21966,-0.10983 0.32948,-0.21965 0.21966,-0.10983 0.43931,-0.32949 0.21966,-0.10982 0.43931,-0.32949 0.21966,-0.10983 0.65897,-0.54914 0.21966,-0.10983 1.09828,-0.98845 0.21966,-0.10983 2.96426,-3.07409 0.11093,-0.22076 0.87752,-0.98735 0.11093,-0.22076 0.54804,-0.65787 0.11093,-0.22075 0.54804,-0.65788 0.11093,-0.22075 0.32839,-0.43822 0.11092,-0.22075 0.32839,-0.43822 0.11093,-0.22075 0.32838,-0.43821 0.11093,-0.22076 0.32839,-0.43821 0.11092,-0.33059 0.32839,-0.43821 0.11093,-0.22076 0.21855,-0.32838 0.11093,-0.22076 0.21856,-0.32838 0.11093,-0.33059 0.32838,-0.43821 0.11093,-0.33059 0.32838,-0.43821 0.11093,-0.33058 0.21856,-0.32839 0.11093,-0.33058 0.32838,-0.43822 0.11093,-0.33058 0.21856,-0.32839 0.11092,-0.33058 0.21856,-0.32839 0.11093,-0.33058 0.21856,-0.32839 0.11092,-0.33058 0.21856,-0.32839 0.11093,-0.44041 0.21856,-0.32838 0.11092,-0.33059 0.21856,-0.32838 0.11093,-0.44041 0.21856,-0.32839 0.11092,-0.33058 0.10873,-0.21856 0.11093,-0.33058 0.21856,-0.32839 0.11092,-0.44041 0.21856,-0.32839 0.11093,-0.44041 0.21856,-0.32839 0.11092,-0.44041 0.21856,-0.32838 0.11093,-0.44042 0.10873,-0.21856 0.11092,-0.33058 0.10873,-0.21856 0.11093,-0.33058 0.10873,-0.21856 0.11093,-0.33058 0.10873,-0.21856 0.11092,-0.33058 0.10873,-0.21856 0.11093,-0.33058 0.10873,-0.21856 0.11093,-0.44041 0.21856,-0.32839 0.11092,-0.44041 0.10873,-0.21856 0.11093,-0.44041 0.21856,-0.32839 0.11092,-0.55024 0.10873,-0.21855 0.11093,-0.33059 0.10873,-0.21856 0.11093,-0.44041 0.10873,-0.21856 0.11092,-0.33058 0.10873,-0.21856 0.11093,-0.44041 0.10873,-0.21856 0.11093,-0.44041 0.10873,-0.21856 0.11092,-0.33058 0.10873,-0.21856 0.11093,-0.44041 0.10873,-0.21856 0.11093,-0.44041 0.10873,-0.21856 0.11092,-0.44041 0.10873,-0.21856 0.11093,-0.44041 0.10873,-0.21856 0.11093,-0.44041 0.10873,-0.21855 0.11092,-0.44042 0.10873,-0.21856 0.11093,-0.44041 0.10873,-0.21855 0.11092,-0.44042 0.10873,-0.21855 0.11093,-0.44042 0.10873,-0.21855 0.11093,-0.44041 0.10873,-0.21856 0.11092,-0.44042 0.10873,-0.21855 0.11093,-0.55024 0.10873,-0.21856 0.11093,-0.44041 0.10873,-0.21856 0.11092,-0.44041 0.10873,-0.21856 0.11093,-0.44041 0.10873,-0.21856 0.11093,-0.55024 0.10873,-0.21856 0.11092,-0.44041 0.10873,-0.21856 0.11093,-0.44041 0.10873,-0.21856 0.11093,-0.550236 0.10873,-0.218558 0.11092,-0.440412 0.10873,-0.218558 0.11093,-0.440411 0.10873,-0.218559 0.11093,-0.550239 0.10873,-0.218558 0.11092,-0.440412 0.10873,-0.218558 0.11093,-0.55024 0.10873,-0.218558 0.11093,-0.440411 0.10873,-0.218558 0.11092,-0.440412 0.10873,-0.218558 0.11093,-0.55024 0.10873,-0.218558 0.11093,-0.440411 0.10873,-0.218558 0.11092,-0.55024 0.10873,-0.218558 0.11093,-0.440412 0.10873,-0.218558 0.11093,-0.440411 0.10873,-0.218559 0.11092,-0.550239 0.10873,-0.218558 0.11093,-0.440412 0.10873,-0.218558 0.11092,-0.440411 0.10873,-0.218559 0.11093,-0.440411 0.10873,-0.218558 0.11093,-0.440411 0.10873,-0.218559 0.11092,-0.440411 0.10874,-0.218558 0.11092,-0.440412 0.10873,-0.218558 0.11093,-0.440411 0.10873,-0.218558 0.11092,-0.440412 0.10873,-0.218558 0.11093,-0.440411 0.10873,-0.218559 0.11093,-0.440411 0.10873,-0.218558 0.11092,-0.440412 0.10873,-0.218558 0.11093,-0.330583 0.10873,-0.218558 0.11093,-0.440411 0.10873,-0.218559 0.11092,-0.330583 0.10873,-0.218558 0.11093,-0.440411 0.10873,-0.218559 0.11093,-0.330583 0.10873,-0.218558 0.11092,-0.330583 0.10873,-0.218558 0.11093,-0.440412 0.21856,-0.328386 0.11092,-0.440411 0.10873,-0.218559 0.11093,-0.330583 0.21856,-0.328386 0.11093,-0.440412 0.10873,-0.218558 0.11092,-0.330583 0.21856,-0.328386 0.11093,-0.440412 0.21855,-0.328386 0.11093,-0.330583 0.21856,-0.328387 0.11093,-0.330583 0.21855,-0.328386 0.11093,-0.330584 0.21856,-0.328386 0.11093,-0.330583 0.32838,-0.438215 0.11093,-0.330583 0.32839,-0.438215 0.11092,-0.220755 0.32839,-0.438214 0.11092,-0.220755 0.54805,-0.657871 0.11092,-0.220755 1.5376,-1.427768 0.32949,-0.109828 0.32948,-0.219656 0.43931,-0.109829 0.21966,-0.109828 1.5376,-0.109828 0.21965,-0.109829 1.09828,-0.109828 0.21966,-0.109828 1.20811,-0.109828 0.21966,-0.109829 1.20811,-0.109828 0.21966,-0.109828 1.20811,-0.109828 0.21965,-0.109829 1.31794,-0.109828 0.21966,-0.109828 1.31794,-0.109828 0.21965,-0.109829 1.42777,-0.109828 0.21966,-0.109828 1.42777,-0.109828 0.21965,-0.109829 1.5376,-0.109828 0.21965,-0.109828 1.64743,-0.109829 0.21966,-0.109828 1.64742,-0.109828 0.21966,-0.109828 1.86708,-0.109829 0.21965,-0.109828 1.97691,-0.109828 0.21966,-0.109828 2.08673,-0.109829 0.21966,-0.109828 2.41622,-0.109828 0.21966,-0.109828 2.08674,-0.109829 0.21965,-0.109828 1.42777,-0.109828 0.21966,-0.109829 0.87862,-0.109828 0.21966,-0.109828 0.54914,-0.109828 0.21966,-0.109829 0.43931,-0.109828 0.21966,-0.109828 0.32948,-0.109828 0.32949,-0.219657 0.65897,-0.109828 0.21965,-0.109828 0.87863,-0.109829 0.21966,-0.109828 2.30749,0.110927 0.21856,0.10873 0.66006,0.110926 0.21856,0.10873 0.44041,0.110927 0.32839,0.218558 0.44041,0.110926 0.32839,0.218559 0.33058,0.110926 0.32839,0.218558 0.33058,0.110927 0.43822,0.328387 0.22075,0.110926 0.43821,0.328387 0.22076,0.110926 0.54804,0.438215 0.22076,0.110926 0.87753,0.7677 0.22075,0.110927 1.97581,1.865982 0.22076,0.110926 2.19656,2.306394 0.10983,0.219656 1.42777,1.537596 0.10982,0.219657 0.98846,1.098282 0.10983,0.219657 0.87862,0.988454 0.10983,0.219657 0.7688,0.878626 0.10983,0.219656 0.65897,0.768798 0.10983,0.219657 0.54914,0.658969 0.10983,0.219657 0.65897,0.768798 0.10982,0.219656 0.54914,0.65897 0.10983,0.219656 0.54914,0.65897 0.10983,0.219656 0.54914,0.65897 0.10983,0.219657 0.43931,0.549141 0.10983,0.219656 0.54914,0.65897 0.10983,0.219657 0.54914,0.658969 0.10983,0.219657 0.43932,0.549141 0.10982,0.219656 0.54914,0.65897 0.10983,0.219657 0.43932,0.549141 0.10982,0.219656 0.54915,0.65897 0.10982,0.219657 0.54915,0.658969 0.10982,0.219657 0.54914,0.658969 0.10983,0.219657 0.43932,0.549141 0.10982,0.219657 0.54915,0.658969 0.10982,0.219657 0.54915,0.658969 0.10982,0.219657 0.65897,0.768798 0.10983,0.219656 0.54914,0.65897 0.10983,0.219656 0.65897,0.768798 0.10983,0.219657 0.65897,0.768798 0.10983,0.219656 0.65897,0.768798 0.10983,0.219656 0.87862,0.988455 0.10983,0.219656 0.7688,0.878627 0.10983,0.219656 0.98845,1.098281 0.10983,0.21966 1.20811,1.31794 0.10983,0.21965 1.64742,1.75726 0.10983,0.21965 7.24757,7.13774 0.22075,0.11093 1.20701,1.09718 0.22076,0.11093 0.7677,0.65787 0.22075,0.11093 0.7677,0.65787 0.22076,0.11093 0.54804,0.43821 0.22076,0.11093 0.54804,0.43821 0.22075,0.11093 0.43822,0.32838 0.22075,0.11093 0.43822,0.32839 0.22075,0.11092 0.43822,0.32839 0.33058,0.11093 0.43821,0.32838 0.22076,0.11093 0.32839,0.21856 0.33058,0.11092 0.43821,0.32839 0.33059,0.11093 0.32838,0.21856 0.22076,0.11092 0.32838,0.21856 0.33059,0.11093 0.32838,0.21855 0.44042,0.11093 0.32838,0.21856 0.33059,0.11093 0.32838,0.21856 0.44041,0.11092 0.32839,0.21856 0.44041,0.11093 0.21856,0.10873 0.44041,0.11092 0.32839,0.21856 0.55024,0.11093 0.21855,0.10873 0.44042,0.11092 0.21855,0.10873 0.44042,0.11093 0.21855,0.10873 0.55024,0.11093 0.21856,0.10873 0.66007,0.11092 0.21856,0.10873 0.7699,0.11093 0.21855,0.10873 0.87973,0.11093 0.21856,0.10873 1.20921,0.11092 0.21855,0.10873 1.97801,0.11093 0.21856,0.10873 5.16193,-0.10983 0.21965,-0.10983 1.5376,-0.10982 0.21966,-0.10983 0.98845,-0.10983 0.21966,-0.10983 0.87862,-0.10983 0.21966,-0.10983 0.7688,-0.10983 0.21965,-0.10982 0.54914,-0.10983 0.21966,-0.10983 0.54914,-0.10983 0.21966,-0.10983 0.54914,-0.10982 0.21966,-0.10983 0.43931,-0.10983 0.21966,-0.10983 0.43931,-0.10983 0.21966,-0.10983 0.43931,-0.10982 0.21966,-0.10983 0.32948,-0.10983 0.21966,-0.10983 0.32948,-0.10983 0.21966,-0.10982 0.32948,-0.10983 0.21966,-0.10983 0.32948,-0.10983 0.21966,-0.10983 0.32949,-0.10983 0.32948,-0.21965 0.43931,-0.10983 0.32949,-0.21966 0.32948,-0.10983 0.32949,-0.21965 0.43931,-0.10983 0.32949,-0.21966 0.32948,-0.10983 0.32948,-0.21965 0.32949,-0.10983 0.43931,-0.32949 0.32949,-0.10982 0.32948,-0.21966 0.32949,-0.10983 0.43931,-0.32948 0.32949,-0.10983 0.43931,-0.32949 0.32948,-0.10982 0.43932,-0.32949 0.32948,-0.10983 0.43931,-0.32948 0.21966,-0.10983 0.32949,-0.21966 0.21965,-0.10983 0.43931,-0.32948 0.32949,-0.10983 0.54914,-0.43931 0.21966,-0.10983 0.43931,-0.32948 0.21966,-0.10983 0.43931,-0.32949 0.21966,-0.10983 0.43931,-0.32948 0.21966,-0.10983 0.43931,-0.32948 0.21966,-0.10983 0.43931,-0.32949 0.21966,-0.10982 0.54914,-0.43932 0.21965,-0.10983 0.54914,-0.43931 0.21966,-0.10983 0.65897,-0.54914 0.21966,-0.10983 0.54914,-0.43931 0.21965,-0.10983 0.65897,-0.54914 0.21966,-0.10983 0.65897,-0.54914 0.21966,-0.10983 0.7688,-0.65897 0.21965,-0.10983 0.65897,-0.54914 0.21966,-0.10982 0.87862,-0.7688 0.21966,-0.10983 0.7688,-0.65897 0.21965,-0.10983 0.87863,-0.7688 0.21966,-0.10983 0.7688,-0.65897 0.21965,-0.10982 0.87863,-0.7688 0.21965,-0.10983 0.87863,-0.7688 0.21966,-0.10983 0.87862,-0.76879 0.21966,-0.10983 0.87863,-0.768799 0.21965,-0.109829 0.87863,-0.768797 0.21965,-0.109829 0.7688,-0.658969 0.21966,-0.109828 0.7688,-0.65897 0.21965,-0.109828 0.7688,-0.65897 0.21966,-0.109828 0.65897,-0.549141 0.21965,-0.109829 0.65897,-0.549141 0.21966,-0.109828 0.65897,-0.549142 0.21966,-0.109828 0.54914,-0.439313 0.21965,-0.109828 0.54915,-0.439313 0.21965,-0.109829 0.54914,-0.439313 0.21966,-0.109828 0.43931,-0.329485 0.21966,-0.109828 0.43931,-0.329485 0.21966,-0.109828 0.43931,-0.329485 0.21966,-0.109828 0.32948,-0.219657 0.21966,-0.109828 0.43931,-0.329485 0.32949,-0.109828 0.43931,-0.329485 0.21966,-0.109828 0.32948,-0.219656 0.32949,-0.109829 0.43931,-0.329485 0.32948,-0.109828 0.32949,-0.219656 0.21966,-0.109829 0.32948,-0.219656 0.32949,-0.109828 0.32948,-0.219657 0.43931,-0.109828 0.32949,-0.219657 0.32948,-0.109828 0.32949,-0.219657 0.43931,-0.109828 0.21966,-0.109828 0.32948,-0.109828 0.21966,-0.109829 0.32948,-0.109828 0.21966,-0.109828 0.43931,-0.109828 0.21966,-0.109829 0.54914,-0.109828 0.21966,-0.109828 0.54914,-0.109828 0.21966,-0.109829 0.76879,-0.109828 0.21966,-0.109828 1.42777,-0.109828 0.21965,-0.109829 3.07629,0.110927 0.21856,0.10873 0.87973,0.110926 0.21855,0.10873 0.55025,0.110927 0.21855,0.10873 0.33059,0.110926 0.21855,0.10873 0.33059,0.110927 0.32838,0.218558 0.33059,0.110927 0.32838,0.218558 0.33059,0.110927 0.43821,0.328386 0.22076,0.110927 0.54804,0.438214 0.22075,0.110927 0.87753,0.767699 0.22076,0.110927 1.64632,1.646326 v 0"
       style="fill:none;stroke:#d62728;stroke-width:2;stroke-linecap:square;stroke-linejoin:round"
       id="path23"
       inkscape:connector-curvature="0" />
  </g>
  <g
     id="line2d_5"
     style="stroke-linecap:butt;stroke-linejoin:round"
     transform="translate(-57.6,-51.661913)">
    <path
       clip-path="url(#p6626826a73)"
       d="m 378.3876,90.947593 0.43931,0.329484 0.33059,0.110927 0.43821,0.328387 0.33059,0.110926 0.43821,0.328387 0.33058,0.110926 0.43822,0.328387 0.33058,0.110926 0.43822,0.328387 0.33058,0.110926 0.43821,0.328387 0.33059,0.110926 0.43821,0.328387 0.22076,0.110926 0.32838,0.218559 0.33059,0.110926 0.54804,0.438215 0.33058,0.110926 0.43822,0.328387 0.22075,0.110927 0.43822,0.328386 0.33058,0.110927 0.54804,0.438214 0.33059,0.110927 0.54804,0.438215 0.22075,0.110926 0.43822,0.328387 0.22075,0.110926 0.43822,0.328387 0.22075,0.110926 0.43822,0.328387 0.22075,0.110926 0.54805,0.438215 0.22075,0.110927 0.43822,0.328386 0.22075,0.110927 0.54804,0.438215 0.22076,0.110926 0.54804,0.438218 0.22076,0.11092 0.65787,0.54805 0.22075,0.11092 0.65787,0.54805 0.22076,0.11092 0.7677,0.65787 0.22075,0.11093 0.87753,0.7677 0.22075,0.11093 0.7677,0.65787 0.22076,0.11092 0.32948,0.21966 v 0"
       style="fill:none;stroke:#9467bd;stroke-width:2;stroke-linecap:square;stroke-linejoin:round"
       id="path26"
       inkscape:connector-curvature="0" />
  </g>
  <g
     id="line2d_6"
     style="stroke-linecap:butt;stroke-linejoin:round"
     transform="translate(-57.6,-51.661913)">
    <path
       clip-path="url(#p6626826a73)"
       d="m 398.37744,104.23791 -0.11092,5.822 -0.10873,0.21855 -0.11093,1.86818 -0.10873,0.21856 -0.11093,1.64852 -0.10873,0.21856 -0.11092,1.5387 -0.10873,0.21856 -0.11093,1.53869 -0.10873,0.21856 -0.11093,1.42886 -0.10873,0.21856 -0.11092,1.42887 -0.10873,0.21856 -0.11093,1.42886 -0.10873,0.21856 -0.11092,1.31904 -0.10873,0.21855 -0.11093,1.31904 -0.10873,0.21856 -0.11093,1.31904 -0.10873,0.21856 -0.11092,1.31903 -0.10873,0.21856 -0.11093,1.20921 -0.10873,0.21856 -0.11093,1.31904 -0.10873,0.21855 -0.11092,1.20921 -0.10873,0.21856 -0.11093,1.09938 -0.10873,0.21856 -0.11093,1.09938 -0.10873,0.21856 -0.11092,0.87972 -0.10873,0.21856 -0.11093,0.87973 -0.10873,0.21856 -0.11093,0.55024 -0.10873,0.21855 -0.11092,0.33059 h -0.10983 v 0"
       style="fill:none;stroke:#8c564b;stroke-width:2;stroke-linecap:square;stroke-linejoin:round"
       id="path29"
       inkscape:connector-curvature="0" />
  </g>
  <g
     id="line2d_7"
     style="stroke-linecap:butt;stroke-linejoin:round"
     transform="translate(-57.6,-51.661913)">
    <path
       clip-path="url(#p6626826a73)"
       d="m 393.76356,139.1644 -0.11093,-0.001 v -0.10983 l -0.21965,-0.32948 -0.10983,-0.87863 -0.10983,-0.21966 -0.10983,-1.09828 -0.10983,-0.21966 -0.10983,-1.09828 -0.10982,-0.21966 -0.10983,-0.98845 -0.10983,-0.21966 -0.10983,-0.98845 -0.10983,-0.21966 -0.10982,-1.09828 -0.10983,-0.21966 -0.10983,-0.87862 -0.10983,-0.21966 -0.10983,-0.98845 -0.10983,-0.21966 -0.10982,-0.98845 -0.10983,-0.21966 -0.10983,-0.87863 -0.10983,-0.10982 v 0"
       style="fill:none;stroke:#e377c2;stroke-width:2;stroke-linecap:square;stroke-linejoin:round"
       id="path32"
       inkscape:connector-curvature="0" />
  </g>
  <g
     id="line2d_8"
     style="stroke-linecap:butt;stroke-linejoin:round"
     transform="translate(-57.6,-51.661913)">
    <path
       clip-path="url(#p6626826a73)"
       d="m 391.23641,126.75271 -0.10873,-0.32839 -0.10873,0.21856 -0.11093,0.66006 -0.10873,0.21856 -0.11092,0.55024 -0.10873,0.21856 -0.11093,0.66007 -0.10873,0.21856 -0.11093,0.55024 -0.10872,0.21855 -0.11093,0.66007 -0.10873,0.21856 -0.11093,0.55024 -0.10873,0.21856 -0.11093,0.66007 -0.10873,0.21855 -0.11092,0.55024 -0.10873,0.21856 -0.11093,0.66007 -0.10873,0.21856 -0.11093,0.55024 -0.10873,0.21856 -0.11092,0.66006 -0.10873,0.21856 -0.11093,0.55024 -0.10873,0.21856 -0.11092,0.66007 -0.10873,0.21856 -0.11093,0.55024 -0.10873,0.21855 -0.11093,0.66007 -0.10873,0.21856 -0.11092,0.66007 -0.10873,0.21856 -0.11093,0.55024 -0.10873,0.21855 -0.11093,0.66007 -0.10873,0.21856 -0.11092,0.55024 -0.10873,0.21856 -0.11093,0.66007 -0.10873,0.21855 -0.11093,0.55024 -0.10873,0.21856 -0.11092,0.66007 -0.10873,0.21856 -0.11093,0.55024 -0.10873,0.21856 -0.11093,0.66006 -0.10873,0.21856 -0.11092,0.55024 -0.10873,0.21856 -0.11093,0.66007 -0.10873,0.21856 -0.11093,0.55024 -0.10873,0.21855 -0.11092,0.66007 -0.10873,0.21856 -0.11093,0.55024 -0.10873,0.21856 -0.11093,0.66007 -0.10873,0.21855 -0.11092,0.55024 -0.10873,0.21856 -0.11093,0.66007 -0.10873,0.21856 -0.11093,0.55024 -0.10873,0.21856 -0.11092,0.66006 -0.10873,0.21856 -0.11093,0.55024 -0.10873,0.21856 -0.11092,0.66007 -0.10873,0.21856 -0.11093,0.55024 -0.10873,0.21855 -0.11093,0.55024 -0.10873,0.21856 -0.11092,0.66007 -0.10873,0.21856 -0.11093,0.55024 -0.10873,0.21856 -0.11093,0.55024 -0.10873,0.21855 -0.11092,0.66007 -0.10873,0.21856 -0.11093,0.55024 -0.10873,0.21856 -0.11093,0.55024 -0.10873,0.21856 -0.11092,0.66006 -0.10873,0.21856 -0.11093,0.55024 -0.10873,0.21856 -0.11093,0.55024 -0.10873,0.21856 -0.11092,0.55024 -0.10873,0.21855 -0.11093,0.55024 -0.10873,0.21856 -0.11093,0.66007 -0.10873,0.21856 -0.11092,0.55024 -0.10873,0.21856 -0.11093,0.55024 -0.10873,0.21855 -0.11093,0.55024 -0.10872,0.21856 -0.11093,0.55024 -0.10873,0.21856 -0.11093,0.55024 -0.10873,0.21856 -0.11093,0.55024 -0.10873,0.21856 -0.11092,0.55024 -0.10873,0.21855 -0.11093,0.55024 -0.10873,0.21856 -0.11092,0.55024 -0.10873,0.21856 -0.11093,0.55024 -0.10873,0.21856 -0.11093,0.55024 -0.10873,0.21856 -0.11092,0.55023 -0.10873,0.21856 -0.11093,0.44041 -0.10873,0.21856 -0.11093,0.55024 -0.10873,0.21856 -0.11092,0.55024 -0.10873,0.21856 -0.11093,0.55024 -0.10873,0.21856 -0.11093,0.44041 -0.10873,0.21856 -0.11092,0.55024 -0.10873,0.21855 -0.11093,0.55024 -0.10873,0.21856 -0.11093,0.44041 -0.10873,0.21856 -0.11092,0.55024 -0.10873,0.21856 -0.11093,0.44041 -0.10873,0.21856 -0.11093,0.55024 -0.10873,0.21856 -0.11092,0.44041 -0.10873,0.21856 -0.11093,0.44041 -0.10873,0.21856 -0.11093,0.55024 -0.10872,0.21855 -0.11093,0.44041 -0.10873,0.21856 -0.11093,0.44041 -0.10873,0.21856 -0.11093,0.44041 -0.10873,0.21856 -0.11092,0.44041 -0.10873,0.21856 -0.11093,0.44041 -0.10873,0.21856 -0.11093,0.44041 -0.10873,0.21856 -0.11092,0.44041 -0.10873,0.21856 -0.11093,0.44041 -0.10873,0.21856 -0.11092,0.44041 -0.10873,0.21856 -0.11093,0.44041 -0.21856,0.32839 -0.11093,0.55024 -0.10872,0.21856 -0.11093,0.44041 -0.21856,0.32838 -0.11093,0.55024 -0.10873,0.21856 -0.11092,0.33058 -0.10873,0.21856 -0.11093,0.44041 -0.21856,0.32839 -0.11093,0.44041 -0.10873,0.21856 -0.11092,0.44041 -0.21856,0.32839 -0.11093,0.44041 -0.21855,0.32839 -0.11093,0.44041 -0.10873,0.21856 -0.11093,0.33058 -0.21856,0.32838 -0.11092,0.44042 -0.21856,0.32838 -0.11093,0.44041 -0.21855,0.32839 -0.11093,0.33058 -0.21856,0.32839 -0.11093,0.33058 -0.21856,0.32839 -0.11092,0.33058 -0.21856,0.32839 -0.11093,0.22075 -0.21855,0.32839 -0.11093,0.33058 -0.43822,0.54805 -0.11092,0.22075 -0.21856,0.32839 -0.11093,0.22075 -0.32838,0.43822 -0.11093,0.22075 -0.21856,0.32839 -0.11093,0.22075 -0.32838,0.43822 -0.11093,0.22075 -0.21856,0.32839 -0.11092,0.22075 -0.32839,0.43822 -0.11093,0.22075 -0.32838,0.43822 -0.11093,0.33058 -0.43821,0.54804 -0.11093,0.22076 -0.32839,0.43821 -0.11092,0.22076 -0.21856,0.32839 -0.11093,0.22075 -0.32838,0.43822 -0.11093,0.22075 -0.32839,0.43822 -0.11092,0.22075 -0.32839,0.43821 -0.11093,0.22076 -0.21855,0.32839 -0.11093,0.22075 -0.32839,0.43822 -0.11093,0.22075 -0.32838,0.43822 -0.11093,0.22075 -0.32839,0.43822 -0.11092,0.22075 -0.32839,0.43821 -0.11092,0.22076 -0.32839,0.43821 -0.11093,0.22076 -0.32838,0.43821 -0.11093,0.22076 -0.32839,0.43821 -0.11092,0.22076 -0.43822,0.54804 -0.11093,0.22076 -0.32838,0.43821 -0.11093,0.22076 -0.32838,0.43821 -0.11093,0.22075 -0.43822,0.54805 -0.11092,0.22075 -0.32839,0.43822 -0.11093,0.22075 -0.43821,0.54805 -0.11093,0.22075 -0.43821,0.54804 -0.11093,0.22076 -0.32838,0.43821 -0.11093,0.22076 -0.43822,0.54804 -0.11092,0.22076 -0.43822,0.54804 -0.11092,0.22075 -0.54805,0.65787 -0.11092,0.22076 -0.43822,0.54804 -0.11092,0.22076 -0.54805,0.65787 -0.11092,0.22075 -0.54805,0.65788 -0.11092,0.22075 -0.54805,0.65787 -0.11092,0.22076 -0.54805,0.65787 -0.11092,0.22075 -0.65787,0.7677 -0.11093,0.22076 -0.7677,0.87752 -0.11093,0.22076 -0.7677,0.87753 -0.11092,0.22075 -0.7677,0.87753 -0.11093,0.22075 -0.98736,1.09719 -0.11092,0.22075 -1.09719,1.20702 -0.11092,0.44041 -0.10873,0.21856 -0.11093,0.66006 -0.10873,0.21856 -0.11093,0.7699 -0.10872,0.21856 -0.11093,0.76989 -0.10873,0.21856 -0.11093,0.7699 -0.10873,0.21856 -0.11093,0.76989 -0.10872,0.21856 -0.11093,0.7699 -0.10873,0.21855 -0.11093,0.7699 -0.10873,0.21856 -0.11093,0.76989 -0.10873,0.21856 -0.11092,0.7699 -0.10873,0.21856 -0.11093,0.87972 -0.10873,0.21856 -0.11092,0.7699 -0.10873,0.21855 -0.11093,0.7699 -0.10873,0.21856 -0.11093,0.76989 -0.10873,0.21856 -0.11092,0.7699 -0.10873,0.21856 -0.11093,0.76989 -0.10873,0.21856 -0.11093,0.87973 -0.10873,0.21855 -0.11092,0.7699 -0.10873,0.21856 -0.11093,0.7699 -0.10873,0.21855 -0.11093,0.87973 -0.10873,0.21856 -0.11092,0.76989 -0.10873,0.21856 -0.11093,0.7699 -0.10873,0.21855 -0.11093,0.87973 -0.10873,0.21856 -0.11092,0.76989 -0.10873,0.21856 -0.11093,0.7699 -0.10873,0.21856 -0.11093,0.87972 -0.10873,0.21856 -0.11092,0.76989 -0.10873,0.21856 -0.11093,0.87973 -0.10873,0.21855 -0.11093,0.7699 -0.10872,0.21856 -0.11093,0.7699 -0.10873,0.21855 -0.11093,0.87973 -0.10873,0.21856 -0.11093,0.76989 -0.10873,0.21856 -0.11092,0.7699 -0.10873,0.21856 -0.11093,0.76989 -0.10873,0.21856 -0.11092,0.7699 -0.10873,0.21855 -0.11093,0.7699 -0.10873,0.21856 -0.11093,0.76989 -0.10873,0.21856 -0.11092,0.7699 -0.10873,0.21856 -0.11093,0.76989 -0.10873,0.21856 -0.11093,0.66007 -0.10873,0.21856 -0.11092,0.66007 -0.10873,0.21855 -0.11093,0.66007 -0.10873,0.21856 -0.11093,0.66007 -0.10873,0.21856 -0.11092,0.66006 -0.10873,0.21856 -0.11093,0.55024 -0.10873,0.21856 -0.11093,0.55024 -0.10873,0.21856 -0.11092,0.44041 -0.10873,0.21856 -0.11093,0.44041 -0.21856,0.32838 -0.11092,0.44042 -0.21856,0.32838 -0.11093,0.22076 -0.43931,0.32948 v 0"
       style="fill:none;stroke:#7f7f7f;stroke-width:2;stroke-linecap:square;stroke-linejoin:round"
       id="path35"
       inkscape:connector-curvature="0" />
  </g>
  <defs
     id="defs55">
    <clipPath
       id="p6626826a73"
       style="stroke-linecap:butt;stroke-linejoin:round">
      <rect
         height="245.73218"
         width="357.12"
         x="57.599998"
         y="51.661915"
         id="rect52"
         style="stroke-linecap:butt;stroke-linejoin:round" />
    </clipPath>
  </defs>
</svg>
